<svg _ngcontent-vhu-c121="" width="22" height="22" viewBox="0 0 22 22" fill="none" xmlns="http://www.w3.org/2000/svg"><path _ngcontent-vhu-c121="" d="M18.9992 4.07302H10.1042V3.45911C10.1042 3.2057 9.89846 3.00016 9.64521 3.00016L6.69871 3C6.4453 3 6.23976 3.20571 6.23976 3.45895V4.07286L3.00029 4.07302V5.67946H6.23976V6.40655C6.23976 6.65997 6.44547 6.8655 6.69871 6.8655H9.64521C9.89862 6.8655 10.1042 6.6598 10.1042 6.40655V5.67946H18.9992V4.07302Z" fill="#0056D2"></path><path _ngcontent-vhu-c121="" d="M18.9992 10.1685L13.5149 10.1684L13.5147 9.49816C13.5147 9.24475 13.3089 9.03921 13.0557 9.03921H10.1092C9.85579 9.03921 9.65025 9.24492 9.65025 9.49816L9.65009 10.1684H3.00041V11.7749H9.6505V12.4454C9.6505 12.6989 9.85621 12.9044 10.1095 12.9044H13.0559C13.3094 12.9044 13.5149 12.6987 13.5149 12.4454V11.775H18.9992V10.1685Z" fill="#0056D2"></path><path _ngcontent-vhu-c121="" d="M18.9992 16.264H16.3904L16.3907 15.5938C16.3907 15.3404 16.185 15.1348 15.9318 15.1348H12.9851C12.7317 15.1348 12.5262 15.3405 12.5262 15.5938V16.2642L3 16.264V17.8705H12.5262V18.541C12.5262 18.7945 12.7319 19 12.9851 19H15.9316C16.185 19 16.3906 18.7943 16.3906 18.541V17.8705H18.9992V16.264Z" fill="#0056D2"></path></svg>