<svg width="84" height="32" viewBox="0 0 84 32" fill="none" xmlns="http://www.w3.org/2000/svg">
<path d="M5.72375 21.5863C4.64485 22.0694 3.39635 22.624 2.70765 22.9438C0.136062 24.1313 -0.786738 27.2309 0.739952 29.599C1.96465 31.4941 4.50235 32.2155 6.62275 31.1539C7.61005 30.6606 9.93735 29.6636 10.9383 29.1941C11.5795 28.8913 12.2207 28.5987 12.8653 28.3061C14.3275 25.1996 5.72375 21.5897 5.72375 21.5897V21.5863Z" fill="url(#paint0_linear_20573_42943)"/>
<path d="M14.8805 24.4171C14.5174 22.903 12.7736 21.981 10.6261 20.6438C10.2902 20.4328 9.82877 20.1947 9.29957 19.9191L5.73047 21.5897C5.73047 21.5897 14.3376 25.2031 12.872 28.3095C14.3444 27.316 15.3079 26.1864 14.8838 24.4205L14.8805 24.4171Z" fill="url(#paint1_linear_20573_42943)"/>
<path d="M9.85935 4.32906L9.89665 4.31206C5.77805 7.61242 9.61175 10.2732 9.61175 10.2732C9.61175 10.2732 11.3894 11.3688 13.5437 12.6413C13.8084 12.5222 14.9042 12.0356 17.0755 11.0013C8.34285 7.33001 9.91025 4.30865 9.91025 4.30865L9.86275 4.32906H9.85935Z" fill="url(#paint2_linear_20573_42943)"/>
<path d="M9.89665 4.31204L6.57535 5.74107C6.57535 5.74107 4.31915 6.72437 3.17245 9.71852C2.67715 11.0115 2.55845 13.9648 3.80695 15.7783C5.58805 18.3573 9.20125 19.7626 10.6228 20.6472C12.7737 21.9843 14.5141 22.903 14.8771 24.4205C15.3012 26.1864 14.3377 27.3194 12.8653 28.3095C14.9077 27.3908 16.5192 26.6695 16.5192 26.6695C16.5192 26.6695 19.7965 25.3051 20.0814 20.5587C20.19 18.752 19.3215 15.9416 17.0348 14.6623C13.7338 12.8148 9.60835 10.2766 9.60835 10.2766C9.60835 10.2766 5.77465 7.61581 9.89325 4.31545L9.89665 4.31204Z" fill="url(#paint3_linear_20573_42943)"/>
<path d="M22.8634 2.12088C20.4886 1.53566 18.1171 0.943635 15.7457 0.358416C15.2402 0.232526 14.7279 0.130453 14.2156 0.0283791C13.6015 -0.0907062 13.3912 0.167879 13.5913 0.749696C13.6354 0.882391 13.6829 1.01849 13.744 1.14778C13.9102 1.51524 14.0799 1.8759 14.2631 2.27399C13.5405 2.61423 10.8637 3.85952 9.89685 4.30524C9.89685 4.30524 8.34295 7.3198 17.0756 10.9911L16.8958 11.0761C17.3334 10.8754 17.7507 10.6815 18.1103 10.5113C18.168 10.6202 18.2019 10.6815 18.2325 10.7461C18.4123 11.1204 18.5955 11.4946 18.7753 11.8689C19.0772 12.4949 19.6065 12.5188 19.8949 11.8927C19.9254 11.8281 19.9729 11.7736 20.0034 11.709C21.2587 9.10608 22.5174 6.50662 23.7591 3.90035C24.1628 3.05315 23.7896 2.34204 22.8668 2.11407L22.8634 2.12088Z" fill="url(#paint4_linear_20573_42943)"/>
<path d="M29.5993 22.6903C30.3366 23.1531 30.7128 23.8422 30.7278 24.7526V24.9086H28.0444V24.8583C28.0444 24.5968 27.9491 24.3805 27.7585 24.2095C27.5679 24.0384 27.277 23.9478 26.8908 23.9478C26.5046 23.9478 26.2187 24.0032 26.013 24.1188C25.8074 24.2296 25.7071 24.3703 25.7071 24.5363C25.7071 24.7727 25.8475 24.9438 26.1234 25.0596C26.3992 25.1701 26.8456 25.2909 27.4576 25.4117C28.1748 25.5575 28.7667 25.7135 29.2281 25.8745C29.6896 26.0355 30.0958 26.297 30.4419 26.6642C30.788 27.0263 30.9635 27.5244 30.9736 28.1481C30.9736 29.2044 30.6175 29.9892 29.9052 30.5022C29.193 31.0154 28.24 31.2719 27.0463 31.2719C25.6519 31.2719 24.5685 31.0355 23.7961 30.5677C23.0237 30.0998 22.6375 29.2698 22.6375 28.0826H25.3459C25.3459 28.5355 25.4613 28.8372 25.697 28.9882C25.9328 29.1391 26.2939 29.2145 26.7855 29.2145C27.1466 29.2145 27.4475 29.1743 27.6883 29.0987C27.924 29.0183 28.0444 28.8623 28.0444 28.6159C28.0444 28.3996 27.914 28.2386 27.6482 28.128C27.3823 28.0173 26.956 27.9067 26.3591 27.7809C25.6318 27.6249 25.03 27.4639 24.5535 27.293C24.077 27.122 23.6607 26.8452 23.3096 26.453C22.9534 26.0606 22.7779 25.5324 22.7779 24.8634C22.7779 23.8824 23.1541 23.1632 23.9114 22.6953C24.6688 22.2325 25.6268 22.0012 26.7855 22.0012C27.9441 22.0012 28.867 22.2325 29.5993 22.6953V22.6903Z" fill="#020202"/>
<path d="M38.447 22.1471H42.0032L38.7981 25.8291L42.0684 31.1008H38.6828L36.8269 27.8211L35.2721 29.0987V31.1008H32.4031V22.1471H35.2721V25.975L38.452 22.1471H38.447Z" fill="#020202"/>
<path d="M43.3374 31.1008V22.1471H46.2064V31.1008H43.3374Z" fill="#020202"/>
<path d="M48.2578 22.1471H51.1268V28.807H55.7062V31.0958H48.2578V22.1421V22.1471Z" fill="#020202"/>
<path d="M56.9099 22.1471H59.7789V28.807H64.3583V31.0958H56.9099V22.1421V22.1471Z" fill="#020202"/>
<path d="M65.5619 22.1471H72.7745V24.2949H68.4259V25.8291H72.1626V27.8864H68.4259V31.1008H65.5569V22.1471H65.5619Z" fill="#020202"/>
<path d="M79.7565 31.1008H76.8875V27.6249L73.3464 22.1471H76.6417L78.3571 25.1249H78.4072L80.1176 22.1471H83.2424L79.7515 27.6249V31.1008H79.7565Z" fill="#020202"/>
<defs>
<linearGradient id="paint0_linear_20573_42943" x1="13.6423" y1="23.5114" x2="19.8426" y2="32.341" gradientUnits="userSpaceOnUse">
<stop stop-color="#010F59"/>
<stop offset="0.08"/>
<stop offset="0.42"/>
<stop offset="0.98" stop-color="#010F59"/>
<stop offset="1" stop-color="#010F59"/>
</linearGradient>
<linearGradient id="paint1_linear_20573_42943" x1="14.6375" y1="26.5012" x2="19.1496" y2="22.0134" gradientUnits="userSpaceOnUse">
<stop stop-color="#00FF00"/>
<stop offset="1" stop-color="#1C8D1C"/>
</linearGradient>
<linearGradient id="paint2_linear_20573_42943" x1="14.6374" y1="12.5012" x2="12.1374" y2="15.0012" gradientUnits="userSpaceOnUse">
<stop stop-color="#00FF00"/>
<stop offset="1" stop-color="#1C8D1C"/>
</linearGradient>
<linearGradient id="paint3_linear_20573_42943" x1="16.941" y1="25.0394" x2="27.4422" y2="8.97673" gradientUnits="userSpaceOnUse">
<stop stop-color="#010F59"/>
<stop offset="0.05" stop-color="#010F59"/>
<stop offset="0.5"/>
<stop offset="1" stop-color="#010F59"/>
</linearGradient>
<linearGradient id="paint4_linear_20573_42943" x1="27.4421" y1="3.26512" x2="38.4921" y2="25.1657" gradientUnits="userSpaceOnUse">
<stop stop-color="#010F59"/>
<stop offset="0.12"/>
<stop offset="0.42"/>
<stop offset="0.68" stop-color="#0D0632"/>
<stop offset="0.98" stop-color="#010F59"/>
<stop offset="1" stop-color="#010F59"/>
</linearGradient>
</defs>
</svg>
