<svg width="36" height="36" viewBox="0 0 36 36" fill="none" xmlns="http://www.w3.org/2000/svg">
<path d="M18.8128 24.6551C19.2578 24.9515 19.6628 25.2485 20.0391 25.5236C21.1647 26.3476 22.0545 26.9996 23.0625 26.9996C23.0867 26.9996 24.1875 27.0344 24.1875 27.5621C24.1875 28.34 23.8348 29.8121 22.5 29.8121C21.7921 29.7735 21.0986 29.596 20.4593 29.2895C19.6879 28.9266 18.8518 28.7217 18 28.6871C17.5278 28.6668 17.0675 28.5326 16.6583 28.2961C16.2492 28.0596 15.9032 27.7277 15.6499 27.3286C15.8249 27.1162 15.9884 26.8947 16.1398 26.6649C17.01 25.4099 18.0068 24.1156 18.8128 24.6551Z" fill="#DAE4F3"/>
<path d="M32.2877 18.1122C30.2706 19.6248 27.6471 21.0524 26.328 20.8246C26.2187 20.8132 26.1132 20.7784 26.0187 20.7223C25.9242 20.6663 25.843 20.5904 25.7807 20.5C25.5461 20.1479 25.365 19.825 25.1901 19.5139C24.564 18.3996 24.0234 17.4372 21.9377 17.4372C20.9409 17.4372 20.1377 16.5816 19.7889 15.7339C19.5905 15.3509 19.5125 14.9167 19.5655 14.4885C19.6184 14.0603 19.7996 13.6581 20.0854 13.3349C20.4829 12.9252 20.744 12.4025 20.8328 11.8385C20.9217 11.2746 20.8339 10.697 20.5815 10.1849C20.4407 9.84916 20.2602 9.53152 20.0437 9.23876C23.0188 8.6613 26.1021 9.14772 28.7548 10.613C31.4076 12.0783 33.461 14.4292 34.5562 17.2549C33.7249 17.276 32.9252 17.5782 32.2877 18.1122Z" fill="#DAE4F3"/>
<path d="M9.5625 21.9377C9.56134 23.7857 9.95607 25.6125 10.7201 27.2951C11.4842 28.9777 12.5999 30.4771 13.9921 31.6924C15.3842 32.9076 17.0206 33.8105 18.791 34.3403C20.5614 34.8701 22.4248 35.0145 24.2556 34.7637C26.0865 34.5129 27.8424 33.8728 29.4052 32.8865C30.9679 31.9002 32.3012 30.5905 33.3153 29.0457C34.3295 27.5008 35.0009 25.7567 35.2844 23.9306C35.5679 22.1045 35.4568 20.2388 34.9588 18.4592C34.2838 18.205 33.5441 18.5768 32.9625 19.0127C32.2695 19.5325 28.8939 21.972 26.6023 21.972C26.2614 21.9922 25.921 21.9249 25.6134 21.7767C25.3058 21.6284 25.0411 21.4041 24.8445 21.1249C24.5858 20.7368 24.3855 20.3802 24.2089 20.0652C23.6121 19.0026 23.3651 18.5627 21.9375 18.5627C21.2308 18.5157 20.553 18.264 19.987 17.8383C19.4209 17.4126 18.991 16.8313 18.7498 16.1653C18.4664 15.5765 18.3663 14.9161 18.4626 14.2697C18.5589 13.6233 18.8471 13.0207 19.2898 12.54C19.5261 12.2845 19.6772 11.962 19.7225 11.6169C19.7677 11.2719 19.7048 10.9213 19.5424 10.6135C19.3734 10.2119 19.1298 9.84605 18.8246 9.53516C16.1518 10.3306 13.8068 11.9671 12.1382 14.2015C10.4695 16.4359 9.56625 19.149 9.5625 21.9377ZM14.7898 26.6025C14.9422 26.4179 15.0843 26.225 15.2156 26.0248C16.0639 24.8008 17.6434 22.5238 19.4344 23.7186C19.8939 24.0246 20.3124 24.3312 20.7006 24.6152C21.6641 25.32 22.4229 25.8752 23.0625 25.8752C23.8404 25.8752 25.3125 26.2279 25.3125 27.5627C25.3125 29.2395 24.3467 30.9377 22.5 30.9377C21.6483 30.903 20.8121 30.6982 20.0408 30.3353C19.4014 30.0288 18.708 29.8512 18 29.8127C16.5488 29.8127 15.0188 28.7383 14.6211 27.7776C14.5248 27.5882 14.4894 27.3737 14.5196 27.1634C14.5498 26.9531 14.6442 26.7572 14.7898 26.6025Z" fill="#DAE4F3"/>
<path d="M20.4715 17.9893C22.2016 16.0644 23.1275 13.5493 23.0585 10.9622C22.9895 8.37497 21.9307 5.91282 20.1005 4.08297C18.2702 2.25313 15.8078 1.19499 13.2206 1.12658C10.6334 1.05817 8.1185 1.9847 6.19408 3.71526L4.97739 2.49914C4.86992 2.39751 4.72762 2.34088 4.5797 2.34088C4.43179 2.34088 4.28949 2.39751 4.18201 2.49914C2.58553 4.09263 1.45542 6.09253 0.914071 8.28226C0.372716 10.472 0.440748 12.7681 1.1108 14.9219C1.78085 17.0758 3.02738 19.0053 4.71541 20.5014C6.40344 21.9976 8.46862 23.0035 10.6873 23.4101V25.3125H8.99983C8.25418 25.3133 7.53933 25.6099 7.01208 26.1372C6.48482 26.6645 6.18822 27.3793 6.18733 28.125C6.18733 28.2741 6.24659 28.4172 6.35208 28.5227C6.45757 28.6282 6.60064 28.6875 6.74983 28.6875H19.1248C19.274 28.6875 19.4171 28.6282 19.5226 28.5227C19.6281 28.4172 19.6873 28.2741 19.6873 28.125C19.6863 27.3793 19.3896 26.6646 18.8624 26.1374C18.3352 25.6101 17.6204 25.3135 16.8748 25.3125H15.1873V23.4101C17.6513 22.9619 19.9198 21.7725 21.6898 20.0008C21.7953 19.8953 21.8545 19.7522 21.8545 19.6031C21.8545 19.4539 21.7953 19.3109 21.6898 19.2054L20.4715 17.9893ZM4.1027 9.52926C4.30577 9.46514 5.1152 8.79239 5.91789 8.98701C6.11875 9.04886 6.303 9.15538 6.45682 9.29858C6.61064 9.44179 6.73005 9.61796 6.80608 9.81389C7.10345 10.4471 7.29136 11.126 7.36183 11.822C7.55927 13.2001 7.96539 13.9151 9.6962 13.4831C9.95045 13.4195 10.1906 13.356 10.4156 13.2963C10.9098 13.1322 11.4231 13.0325 11.9428 12.9999C11.9664 13.3132 11.927 13.628 11.827 13.9258C11.6711 14.5827 11.3875 15.2026 10.9922 15.75C10.7511 16.005 10.5971 16.33 10.5524 16.6781C10.5077 17.0262 10.5747 17.3795 10.7436 17.6872C10.8308 17.861 10.9174 18.0213 11.0001 18.1749C11.2008 18.4504 11.3416 18.765 11.4133 19.0983C11.485 19.4316 11.486 19.7762 11.4163 20.1099C10.2338 19.9107 9.10322 19.4765 8.09138 18.833C7.07954 18.1894 6.20697 17.3496 5.52526 16.363C4.84355 15.3765 4.36652 14.2633 4.12238 13.0892C3.87823 11.9152 3.87193 10.7041 4.10383 9.52757L4.1027 9.52926ZM11.9901 17.6416C11.9125 17.4982 11.8315 17.348 11.7505 17.186C11.593 16.8721 11.6183 16.835 11.9243 16.3816C12.3925 15.7246 12.73 14.9837 12.9182 14.1991C13.0999 13.4713 13.2214 12.6635 12.7399 12.1893C12.2027 11.6595 11.3758 11.8777 10.1271 12.209C9.90714 12.2653 9.67145 12.3294 9.42227 12.3918C8.52226 12.6168 8.60045 12.5341 8.47502 11.6606C8.38861 10.8449 8.16436 10.0499 7.81183 9.30932C7.66449 8.96356 7.44021 8.65596 7.15608 8.40994C6.87194 8.16391 6.53542 7.98594 6.17214 7.88958C5.62059 7.77863 5.04845 7.83565 4.52964 8.05326C5.0227 6.76311 5.80508 5.60322 6.8166 4.66279C7.82812 3.72235 9.04185 3.02642 10.3645 2.62851C10.0934 3.61518 10.1263 4.66068 10.459 5.62832C10.614 6.00527 10.8455 6.34598 11.1389 6.62897C11.4322 6.91196 11.7811 7.13108 12.1633 7.27251C13.0463 7.67424 14.0058 7.87977 14.9758 7.87495C15.1537 7.84804 15.3355 7.87096 15.5012 7.94116C15.6668 8.01136 15.8097 8.1261 15.9141 8.27264C16.6515 9.05182 17.5998 9.59937 18.6433 9.84841C19.6868 10.0974 20.7802 10.0372 21.79 9.67495C21.9471 10.5116 21.9788 11.367 21.8839 12.2129C21.4538 11.8671 20.9904 11.5647 20.5007 11.3101C20.3602 11.2276 20.2027 11.1782 20.0403 11.1655C19.8778 11.1528 19.7146 11.1773 19.563 11.237C19.3685 11.3555 19.2034 11.5164 19.0798 11.7077C18.9563 11.899 18.8777 12.1158 18.8498 12.3418C18.6748 12.9577 18.6017 13.2035 17.8868 12.6461C17.6958 12.4724 17.4652 12.348 17.2152 12.2836C16.9652 12.2192 16.7033 12.2168 16.4522 12.2766C16.201 12.3364 15.9683 12.4566 15.7741 12.6268C15.58 12.7969 15.4303 13.0119 15.3381 13.253C15.0658 14.1058 15.6261 15.1582 16.12 16.0863C16.3871 16.5881 16.8827 17.3199 16.3275 19.5524C16.327 19.5626 16.327 19.5727 16.3275 19.5828C15.2516 20.0234 14.1 20.25 12.9373 20.25C12.8018 20.25 12.6701 20.2353 12.5368 20.2297C12.6954 19.3288 12.4995 18.4014 11.9901 17.6416ZM17.1133 15.557C16.7826 14.9349 16.282 13.995 16.4102 13.5939C16.4226 13.5587 16.4426 13.5267 16.4689 13.5003C16.4952 13.4738 16.527 13.4535 16.5621 13.4409C16.8765 13.284 16.9058 13.3064 17.1943 13.5315C17.5705 13.869 18.0569 14.0578 18.5623 14.0625C19.5315 14.0625 19.7931 13.1428 19.9337 12.6483C19.9607 12.5527 19.9967 12.4233 20.0316 12.3322C20.6123 12.6514 21.1544 13.0364 21.6471 13.4797C21.0584 15.758 19.6026 17.7161 17.5903 18.936C17.8918 16.8828 17.4548 16.2 17.1133 15.557ZM21.5278 8.5657C19.5028 9.47132 17.5549 8.32383 16.7083 7.47726C16.4992 7.22546 16.2324 7.02785 15.9306 6.90123C15.6288 6.7746 15.3009 6.72271 14.9747 6.74995C14.1482 6.75339 13.3311 6.57499 12.5813 6.22739C12.3392 6.14134 12.1178 6.00547 11.9315 5.82855C11.7452 5.65163 11.598 5.43759 11.4996 5.20026C11.1058 4.25695 11.3972 3.01495 11.6042 2.35964C13.7287 2.02285 15.9033 2.46555 17.7271 3.60609C19.5508 4.74664 20.9007 6.50811 21.5278 8.5657ZM18.465 27.5625H7.40514C7.52148 27.2334 7.73699 26.9485 8.02198 26.747C8.30698 26.5455 8.64743 26.4374 8.99645 26.4375H16.8748C17.2235 26.4382 17.5635 26.5467 17.8481 26.7481C18.1328 26.9494 18.3482 27.2339 18.465 27.5625ZM11.8123 25.3125V23.625H14.0623V25.3125H11.8123ZM4.97739 19.2054C2.93901 17.1629 1.76238 14.4159 1.69027 11.5312C1.61815 8.64647 2.65605 5.84412 4.58983 3.70233L5.39983 4.51064C3.66916 6.43531 2.74266 8.9505 2.81125 11.5379C2.87983 14.1254 3.93828 16.588 5.76849 18.4182C7.59869 20.2485 10.0612 21.3071 12.6487 21.3758C15.2361 21.4444 17.7513 20.518 19.6761 18.7875L20.4844 19.5963C18.3412 21.5293 15.5381 22.5663 12.6529 22.4935C9.76775 22.4208 7.02045 21.2439 4.97739 19.2054Z" fill="#0056D2"/>
</svg>
