<svg width="84" height="32" viewBox="0 0 84 32" fill="none" xmlns="http://www.w3.org/2000/svg">
<path d="M13.3743 28.1004L13.4322 28.0732L13.3743 28.1004ZM5.74275 21.5921C4.6603 22.0755 3.40767 22.6303 2.71667 22.9503C0.136513 24.1383 -0.789351 27.2392 0.742407 29.6083C1.97122 31.5043 4.51734 32.2259 6.64478 31.1639C7.63532 30.6704 9.9704 29.673 10.9745 29.2033C11.6179 28.9003 12.2612 28.6076 12.908 28.3148C14.3751 25.2071 5.74275 21.5955 5.74275 21.5955V21.5921Z" fill="url(#paint0_linear_20589_42969)"/>
<path d="M14.9264 24.4242C14.5622 22.9094 12.8126 21.987 10.6579 20.6493C10.3209 20.4382 9.85801 20.1999 9.327 19.9242L5.74609 21.5955C5.74609 21.5955 14.3818 25.2105 12.9113 28.3183C14.3886 27.3243 15.3553 26.1942 14.9298 24.4276L14.9264 24.4242Z" fill="url(#paint1_linear_20589_42969)"/>
<path d="M9.8922 4.32753L9.92964 4.31051C5.7973 7.6123 9.64372 10.2742 9.64372 10.2742C9.64372 10.2742 11.4274 11.3702 13.5888 12.6433C13.8543 12.5241 14.9538 12.0374 17.1323 11.0026C8.37065 7.32977 9.94326 4.30711 9.94326 4.30711L9.8956 4.32753H9.8922Z" fill="url(#paint2_linear_20589_42969)"/>
<path d="M9.9263 4.3105L6.59388 5.74014C6.59388 5.74014 4.33028 6.72387 3.17976 9.71931C2.68279 11.0128 2.56365 13.9674 3.81629 15.7817C5.60334 18.3618 9.2285 19.7676 10.6547 20.6527C12.8128 21.9904 14.559 22.9094 14.9232 24.4276C15.3487 26.1942 14.382 27.3277 12.9047 28.3182C14.9539 27.3992 16.5707 26.6776 16.5707 26.6776C16.5707 26.6776 19.8589 25.3126 20.1448 20.5642C20.2537 18.7567 19.3824 15.9451 17.0881 14.6652C13.7761 12.8169 9.63697 10.2775 9.63697 10.2775C9.63697 10.2775 5.79056 7.61569 9.9229 4.3139L9.9263 4.3105Z" fill="url(#paint3_linear_20589_42969)"/>
<path d="M22.9394 2.12179C20.5567 1.53632 18.1773 0.944042 15.798 0.358571C15.2908 0.232626 14.7768 0.130508 14.2628 0.0283913C13.6467 -0.0907454 13.4357 0.167952 13.6365 0.75002C13.6808 0.882773 13.7284 1.01893 13.7897 1.14828C13.9565 1.5159 14.1267 1.87671 14.3105 2.27497C13.5855 2.61536 10.8998 3.86119 9.92966 4.3071C9.92966 4.3071 8.37067 7.32296 17.1323 10.9958L16.9519 11.0809C17.391 10.88 17.8097 10.686 18.1705 10.5158C18.2284 10.6248 18.2624 10.686 18.2931 10.7507C18.4735 11.1251 18.6573 11.4996 18.8377 11.874C19.1406 12.5003 19.6716 12.5241 19.961 11.8978C19.9916 11.8331 20.0393 11.7787 20.0699 11.714C21.3293 9.11001 22.5922 6.50943 23.838 3.90204C24.2431 3.05446 23.8687 2.34305 22.9428 2.11498L22.9394 2.12179Z" fill="url(#paint4_linear_20589_42969)"/>
<path d="M29.5072 22.6916C30.2493 23.1561 30.6279 23.8477 30.6431 24.7615V24.918H27.9422V24.8675C27.9422 24.605 27.8463 24.3879 27.6544 24.2163C27.4626 24.0446 27.1698 23.9537 26.7811 23.9537C26.3923 23.9537 26.1046 24.0093 25.8976 24.1254C25.6906 24.2364 25.5896 24.3778 25.5896 24.5444C25.5896 24.7817 25.731 24.9533 26.0086 25.0694C26.2863 25.1805 26.7356 25.3017 27.3515 25.4228C28.0734 25.5692 28.6692 25.7257 29.1336 25.8873C29.5981 26.0488 30.007 26.3113 30.3553 26.6799C30.7037 27.0434 30.8804 27.5432 30.8905 28.1692C30.8905 29.2293 30.532 30.0169 29.8151 30.5318C29.0983 31.0467 28.1391 31.3042 26.9376 31.3042C25.5341 31.3042 24.4436 31.0669 23.6662 30.5974C22.8887 30.1279 22.5 29.295 22.5 28.1035H25.2312C25.2312 28.5579 25.3473 28.8608 25.5846 29.0122C25.8219 29.1637 26.1853 29.2394 26.6801 29.2394C27.0436 29.2394 27.3465 29.199 27.5888 29.1233C27.8311 29.0476 27.9472 28.886 27.9472 28.6387C27.9472 28.4216 27.816 28.26 27.5484 28.149C27.2808 28.0379 26.8517 27.9268 26.251 27.8006C25.519 27.6441 24.9131 27.4826 24.4335 27.3109C23.9539 27.1393 23.5349 26.8616 23.1815 26.4678C22.8231 26.0741 22.6464 25.544 22.6464 24.8725C22.6464 23.8881 23.025 23.1662 23.7873 22.6967C24.5497 22.2322 25.5139 22 26.6801 22C27.8463 22 28.7752 22.2322 29.5122 22.6967L29.5072 22.6916Z" fill="white"/>
<path d="M38.4127 22.1464H41.992L38.7661 25.8418L42.0576 31.1326H38.65L36.782 27.841L35.217 29.1233V31.1326H32.3293V22.1464H35.217V25.9882L38.4177 22.1464H38.4127Z" fill="white"/>
<path d="M43.3347 31.1326V22.1464H46.2224V31.1326H43.3347Z" fill="white"/>
<path d="M48.2822 22.1464H51.1699V28.8305H55.7791V31.1275H48.2822V22.1413V22.1464Z" fill="white"/>
<path d="M56.9958 22.1464H59.8835V28.8305H64.4927V31.1275H56.9958V22.1413V22.1464Z" fill="white"/>
<path d="M65.7043 22.1464H72.9639V24.3021H68.5869V25.8418H72.348V27.9066H68.5869V31.1326H65.6992V22.1464H65.7043Z" fill="white"/>
<path d="M79.9914 31.1326H77.1037V27.6441L73.5396 22.1464H76.8564L78.5829 25.1351H78.6334L80.3549 22.1464H83.5001L79.9864 27.6441V31.1326H79.9914Z" fill="white"/>
<defs>
<linearGradient id="paint0_linear_20589_42969" x1="3.66902" y1="23.2201" x2="8.75936" y2="32.0332" gradientUnits="userSpaceOnUse">
<stop stop-color="#8F8AF9"/>
<stop offset="0.13" stop-color="#B0ADFA"/>
<stop offset="0.27" stop-color="#D2D0FC"/>
<stop offset="0.42" stop-color="#EBEAFD"/>
<stop offset="0.54" stop-color="#F9F9FE"/>
<stop offset="0.64" stop-color="white"/>
</linearGradient>
<linearGradient id="paint1_linear_20589_42969" x1="10.5047" y1="25.0572" x2="14.5657" y2="20.083" gradientUnits="userSpaceOnUse">
<stop stop-color="#00FF00"/>
<stop offset="1" stop-color="#008D00"/>
</linearGradient>
<linearGradient id="paint2_linear_20589_42969" x1="13.3744" y1="9.19055" x2="9.80026" y2="14.807" gradientUnits="userSpaceOnUse">
<stop stop-color="#00FF00"/>
<stop offset="1" stop-color="#008D00"/>
</linearGradient>
<linearGradient id="paint3_linear_20589_42969" x1="6.18842" y1="23.7902" x2="17.1677" y2="10.2376" gradientUnits="userSpaceOnUse">
<stop offset="0.23" stop-color="#8F8AF9"/>
<stop offset="0.24" stop-color="#938EF9"/>
<stop offset="0.31" stop-color="#B9B6FB"/>
<stop offset="0.39" stop-color="#D7D6FC"/>
<stop offset="0.47" stop-color="#EDECFE"/>
<stop offset="0.54" stop-color="#FAFAFE"/>
<stop offset="0.6" stop-color="white"/>
<stop offset="0.66" stop-color="#FAF9FE"/>
<stop offset="0.73" stop-color="#EBEAFD"/>
<stop offset="0.81" stop-color="#D4D2FC"/>
<stop offset="0.89" stop-color="#B3AFFA"/>
<stop offset="0.97" stop-color="#8F8AF9"/>
</linearGradient>
<linearGradient id="paint4_linear_20589_42969" x1="15.5237" y1="0.308056" x2="26.5595" y2="22.2436" gradientUnits="userSpaceOnUse">
<stop stop-color="#8F8AF9"/>
<stop offset="0.08" stop-color="#B3AFFA"/>
<stop offset="0.17" stop-color="#D4D2FC"/>
<stop offset="0.25" stop-color="#EBEAFD"/>
<stop offset="0.33" stop-color="#FAF9FE"/>
<stop offset="0.39" stop-color="white"/>
</linearGradient>
</defs>
</svg>
