<svg width="15" height="18" viewBox="0 0 15 18" fill="none" xmlns="http://www.w3.org/2000/svg">
<path fill-rule="evenodd" clip-rule="evenodd" d="M7.73338 14.3245L8.21322 14.6609L12.5586 17.5563C12.9548 17.841 13.4783 17.8796 13.9129 17.6542C14.3518 17.4268 14.6223 16.9704 14.613 16.4778V1.4977C14.613 1.15363 14.4763 0.823462 14.2329 0.580039C13.9895 0.336607 13.6593 0.199951 13.3153 0.199951H2.09803C1.75397 0.199951 1.42379 0.336607 1.18036 0.580039C0.93694 0.823462 0.800279 1.15363 0.800279 1.4977V16.4778C0.79102 16.9704 1.06153 17.4268 1.50034 17.6542C1.93498 17.8796 2.4585 17.841 2.85471 17.5563L7.20007 14.6609L7.73338 14.3245ZM7.70664 12.7581C8.00555 12.7273 8.31284 12.8004 8.57195 12.9772L13.013 15.9364V1.79995H2.40028V15.9364L6.84134 12.9772C7.10045 12.8004 7.40774 12.7273 7.70664 12.7581Z" fill="#4A5568"/>
</svg>
