<svg width="170" height="51" viewBox="0 0 170 51" fill="none" xmlns="http://www.w3.org/2000/svg">
<g clip-path="url(#clip0_42_362)">
<path d="M168.239 44.2567C168.239 44.8883 168.114 45.5137 167.873 46.0971C167.631 46.6805 167.276 47.2105 166.829 47.6569C166.382 48.1032 165.852 48.4571 165.268 48.6983C164.684 48.9395 164.059 49.0633 163.427 49.0627H5.93619C4.65987 49.0643 3.43519 48.5588 2.53148 47.6576C1.62777 46.7563 1.11904 45.533 1.11719 44.2567V5.92968C1.11904 4.65281 1.62758 3.42888 2.53111 2.52665C3.43465 1.62443 4.65932 1.11767 5.93619 1.11768H163.425C164.701 1.11768 165.925 1.62465 166.828 2.52708C167.73 3.4295 168.237 4.65345 168.237 5.92968V44.2567H168.239Z" fill="white"/>
<path d="M163.426 50.1815H5.936C4.36392 50.1815 2.85605 49.5579 1.7432 48.4475C0.630361 47.3371 0.00344289 45.8306 0 44.2585L0 5.93149C0.00238318 4.35836 0.628706 2.85041 1.74155 1.7385C2.85439 0.626598 4.36286 0.00154583 5.936 0.000488281L163.425 0.000488281C164.998 0.00233772 166.506 0.627644 167.619 1.73938C168.731 2.85111 169.358 4.3586 169.361 5.93149V44.2575C169.358 45.8296 168.731 47.3362 167.618 48.4468C166.506 49.5574 164.998 50.1812 163.426 50.1815Z" fill="#A6A6A6"/>
<path d="M168.239 44.2567C168.239 44.8883 168.114 45.5137 167.873 46.0971C167.631 46.6805 167.276 47.2105 166.829 47.6569C166.382 48.1032 165.852 48.4571 165.268 48.6983C164.684 48.9395 164.059 49.0633 163.427 49.0627H5.93619C4.65987 49.0643 3.43519 48.5588 2.53148 47.6576C1.62777 46.7563 1.11904 45.533 1.11719 44.2567V5.92968C1.11904 4.65281 1.62758 3.42888 2.53111 2.52665C3.43465 1.62443 4.65932 1.11767 5.93619 1.11768H163.425C164.701 1.11768 165.925 1.62465 166.828 2.52708C167.73 3.4295 168.237 4.65345 168.237 5.92968V44.2567H168.239Z" fill="black"/>
<path d="M37.8154 24.8272C37.8319 23.6007 38.1583 22.3983 38.7643 21.3318C39.3703 20.2652 40.2362 19.3693 41.2814 18.7272C40.6168 17.7789 39.7403 16.9985 38.7216 16.4479C37.7028 15.8973 36.5698 15.5917 35.4124 15.5552C32.9434 15.2952 30.5484 17.0322 29.2904 17.0322C28.0074 17.0322 26.0704 15.5802 23.9834 15.6232C22.6345 15.6659 21.3197 16.0571 20.1669 16.7588C19.0142 17.4605 18.0628 18.4487 17.4054 19.6272C14.5614 24.5502 16.6824 31.7842 19.4054 35.7632C20.7684 37.7132 22.3614 39.8882 24.4464 39.8112C26.4864 39.7282 27.2464 38.5112 29.7094 38.5112C32.1484 38.5112 32.8633 39.8112 34.9904 39.7612C37.1793 39.7272 38.5574 37.8032 39.8734 35.8372C40.8531 34.4494 41.6068 32.915 42.1064 31.2912C40.8364 30.7529 39.7526 29.8531 38.9897 28.7039C38.2268 27.5547 37.8184 26.2066 37.8154 24.8272ZM33.7984 12.9332C34.9918 11.5015 35.5798 9.66073 35.4374 7.80225C33.6146 7.99426 31.9307 8.86491 30.7204 10.2412C30.1289 10.914 29.6758 11.6967 29.3872 12.5448C29.0986 13.3928 28.9801 14.2894 29.0384 15.1832C29.9503 15.1928 30.8525 14.9952 31.677 14.6055C32.5016 14.2158 33.2269 13.644 33.7984 12.9332Z" fill="white"/>
<path d="M67.3618 39.5344H64.5108L62.9478 34.6294H57.5198L56.0328 39.5344H53.2578L58.6368 22.8344H61.9578L67.3618 39.5344ZM62.4788 32.5714L61.0668 28.2104C60.9175 27.7651 60.6368 26.7164 60.2248 25.0644H60.1748C60.0088 25.7744 59.7445 26.8231 59.3818 28.2104L57.9928 32.5714H62.4788ZM81.1668 33.3654C81.2643 35.1394 80.6655 36.8813 79.4978 38.2204C79.0271 38.7334 78.4525 39.1401 77.8123 39.4136C77.172 39.6871 76.4809 39.821 75.7848 39.8064C75.1104 39.8617 74.4337 39.7318 73.8277 39.4309C73.2216 39.1299 72.7093 38.6691 72.3458 38.0984V44.4164H69.6698V31.4504C69.6698 30.1644 69.6365 28.8451 69.5698 27.4924H71.9238L72.0728 29.4014H72.1228C72.5283 28.7805 73.0731 28.263 73.714 27.8899C74.3549 27.5169 75.074 27.2987 75.8141 27.2528C76.5542 27.2068 77.2948 27.3344 77.9769 27.6253C78.659 27.9162 79.2637 28.3624 79.7428 28.9284C80.7361 30.1877 81.2414 31.7633 81.1658 33.3654H81.1668ZM78.4408 33.4654C78.4827 32.44 78.2056 31.4268 77.6478 30.5654C77.3891 30.189 77.0405 29.8832 76.6336 29.6757C76.2267 29.4682 75.7744 29.3657 75.3178 29.3774C74.6591 29.3761 74.0213 29.6086 73.5178 30.0334C72.981 30.4712 72.6095 31.079 72.4648 31.7564C72.3938 32.0225 72.3546 32.2961 72.3478 32.5714V34.5804C72.326 35.3954 72.614 36.1884 73.1538 36.7994C73.415 37.0944 73.7382 37.328 74.1002 37.4836C74.4621 37.6392 74.854 37.7128 75.2478 37.6994C75.7062 37.7174 76.1617 37.6202 76.5728 37.4167C76.9838 37.2132 77.3373 36.9098 77.6008 36.5344C78.1995 35.6258 78.4933 34.5502 78.4398 33.4634L78.4408 33.4654ZM95.0208 33.3654C95.1183 35.1394 94.5195 36.8813 93.3518 38.2204C92.881 38.7335 92.3062 39.1403 91.6658 39.4138C91.0254 39.6873 90.334 39.8211 89.6378 39.8064C88.9634 39.8617 88.2867 39.7318 87.6807 39.4309C87.0746 39.1299 86.5623 38.6691 86.1988 38.0984V44.4164H83.5228V31.4504C83.5228 30.1644 83.4895 28.8451 83.4228 27.4924H85.7768L85.9258 29.4014H85.9758C86.3815 28.7805 86.9265 28.2629 87.5676 27.8899C88.2086 27.5169 88.9279 27.2987 89.6682 27.2528C90.4084 27.2068 91.1491 27.3344 91.8314 27.6253C92.5136 27.9162 93.1185 28.3624 93.5978 28.9284C94.5906 30.188 95.0959 31.7633 95.0208 33.3654ZM92.2928 33.4654C92.334 32.4398 92.0563 31.4266 91.4978 30.5654C91.2397 30.1892 90.8915 29.8834 90.4852 29.6759C90.0788 29.4685 89.627 29.3658 89.1708 29.3774C88.5124 29.3776 87.875 29.6099 87.3708 30.0334C86.8342 30.4712 86.4631 31.0791 86.3188 31.7564C86.2456 32.022 86.2033 32.2951 86.1928 32.5704V34.5794C86.1704 35.3934 86.4561 36.1859 86.9928 36.7984C87.2549 37.0938 87.5791 37.3277 87.9421 37.4833C88.3052 37.6389 88.6981 37.7123 89.0928 37.6984C89.5513 37.7174 90.0071 37.6209 90.4186 37.4179C90.8301 37.2149 91.184 36.9118 91.4478 36.5364C92.049 35.6279 92.345 34.5515 92.2928 33.4634V33.4654ZM110.51 34.8524C110.531 35.5042 110.409 36.1527 110.152 36.7522C109.896 37.3518 109.511 37.8877 109.025 38.3224C107.745 39.3625 106.121 39.8842 104.475 39.7844C102.964 39.8567 101.463 39.4959 100.15 38.7444L100.769 36.5144C101.938 37.2081 103.275 37.5685 104.635 37.5564C105.475 37.6076 106.306 37.367 106.989 36.8754C107.262 36.6594 107.481 36.3821 107.628 36.066C107.775 35.7499 107.845 35.4037 107.834 35.0554C107.84 34.7377 107.781 34.4222 107.66 34.1281C107.54 33.8341 107.361 33.5677 107.134 33.3454C106.464 32.7622 105.681 32.3237 104.834 32.0574C101.91 30.9647 100.448 29.3694 100.448 27.2714C100.433 26.629 100.564 25.9916 100.833 25.4078C101.101 24.824 101.499 24.3091 101.997 23.9024C103.159 22.9827 104.616 22.5159 106.097 22.5884C107.406 22.5424 108.707 22.8145 109.889 23.3814L109.217 25.5624C108.229 25.04 107.124 24.7758 106.007 24.7944C105.209 24.7468 104.421 24.9937 103.793 25.4884C103.579 25.6774 103.408 25.9104 103.292 26.1715C103.176 26.4326 103.117 26.7157 103.121 27.0014C103.115 27.3146 103.182 27.6249 103.315 27.9084C103.448 28.1919 103.645 28.441 103.89 28.6364C104.626 29.1921 105.445 29.6269 106.318 29.9244C107.518 30.3468 108.604 31.0417 109.49 31.9544C110.182 32.7588 110.546 33.7939 110.511 34.8544L110.51 34.8524ZM119.381 29.5024H116.431V35.3484C116.431 36.8357 116.951 37.5787 117.992 37.5774C118.392 37.5868 118.791 37.5452 119.181 37.4534L119.255 39.4854C118.584 39.7058 117.88 39.8073 117.174 39.7854C116.715 39.8108 116.257 39.7376 115.829 39.5706C115.402 39.4036 115.015 39.1467 114.695 38.8174C114.011 37.8808 113.693 36.7261 113.803 35.5714V29.5014H112.048V27.4874H113.805V25.2874L116.433 24.4944V27.4944H119.383L119.381 29.5024ZM132.664 33.4164C132.729 35.0819 132.163 36.7106 131.077 37.9754C130.52 38.5842 129.836 39.0637 129.074 39.3804C128.312 39.697 127.49 39.8431 126.666 39.8084C125.876 39.8434 125.087 39.7041 124.357 39.4005C123.627 39.0969 122.972 38.6363 122.44 38.0514C121.371 36.8266 120.808 35.241 120.866 33.6164C120.799 31.9371 121.38 30.2963 122.489 29.0334C123.045 28.4365 123.725 27.9678 124.48 27.6597C125.236 27.3517 126.05 27.2117 126.865 27.2494C127.66 27.2168 128.453 27.3572 129.188 27.6609C129.924 27.9646 130.585 28.4244 131.126 29.0084C132.181 30.2273 132.731 31.8034 132.663 33.4144L132.664 33.4164ZM129.89 33.4784C129.918 32.4834 129.67 31.5 129.173 30.6374C128.946 30.1983 128.602 29.8314 128.177 29.578C127.753 29.3246 127.267 29.1948 126.773 29.2034C126.271 29.1891 125.774 29.3159 125.341 29.5694C124.907 29.8228 124.553 30.1929 124.319 30.6374C123.817 31.5163 123.569 32.5169 123.601 33.5284C123.572 34.524 123.821 35.5079 124.319 36.3704C124.556 36.8062 124.906 37.1696 125.333 37.4221C125.76 37.6745 126.248 37.8065 126.744 37.8041C127.24 37.8016 127.726 37.6648 128.151 37.4081C128.575 37.1514 128.922 36.7845 129.155 36.3464C129.663 35.4774 129.919 34.4838 129.894 33.4774L129.89 33.4784ZM141.366 29.8484C141.087 29.7981 140.805 29.7734 140.522 29.7744C140.098 29.7546 139.676 29.8419 139.294 30.0284C138.913 30.2149 138.585 30.4945 138.34 30.8414C137.873 31.5442 137.639 32.3762 137.672 33.2194V39.5374H134.996V31.2874C134.996 30.0207 134.97 28.7571 134.918 27.4964H137.248L137.348 29.7964H137.422C137.675 29.0448 138.14 28.3821 138.76 27.8874C139.318 27.4696 139.996 27.2434 140.694 27.2424C140.918 27.2413 141.141 27.2577 141.363 27.2914L141.366 29.8484ZM153.334 32.9484C153.34 33.355 153.306 33.7613 153.234 34.1614H145.208C145.19 34.6737 145.285 35.1838 145.486 35.6552C145.688 36.1267 145.99 36.5481 146.373 36.8894C147.12 37.4734 148.051 37.7716 148.999 37.7304C150.107 37.7455 151.209 37.5528 152.247 37.1624L152.666 39.0184C151.385 39.5418 150.011 39.7951 148.628 39.7624C147.82 39.8067 147.013 39.6833 146.255 39.4C145.498 39.1167 144.808 38.6797 144.228 38.1164C143.681 37.5223 143.258 36.8254 142.983 36.0662C142.709 35.307 142.588 34.5007 142.628 33.6944C142.569 32.0544 143.097 30.4472 144.117 29.1614C144.618 28.5317 145.26 28.0288 145.992 27.6934C146.723 27.3579 147.524 27.1993 148.328 27.2304C149.095 27.1877 149.861 27.3428 150.551 27.681C151.242 28.0191 151.834 28.5288 152.271 29.1614C153.007 30.2822 153.378 31.6033 153.334 32.9434V32.9484ZM150.782 32.2544C150.818 31.5322 150.637 30.8158 150.262 30.1974C150.041 29.8355 149.726 29.5403 149.351 29.3436C148.976 29.1468 148.554 29.0559 148.131 29.0804C147.714 29.0729 147.301 29.1684 146.929 29.3585C146.558 29.5487 146.239 29.8275 146.001 30.1704C145.545 30.7751 145.271 31.4967 145.209 32.2514H150.782V32.2544Z" fill="white"/>
<path d="M56.7521 16.9303C56.1094 16.9332 55.4671 16.8998 54.8281 16.8303V8.75833C55.5779 8.64243 56.3355 8.58526 57.0941 8.58733C60.1631 8.58733 61.5761 10.0973 61.5761 12.5573C61.5751 15.3963 59.9061 16.9303 56.7521 16.9303ZM57.2011 9.62333C56.8462 9.6166 56.4914 9.64507 56.1421 9.70833V15.8463C56.4374 15.8773 56.7343 15.8893 57.0311 15.8823C59.0421 15.8823 60.1871 14.7383 60.1871 12.5943C60.2347 12.1913 60.1901 11.7828 60.0566 11.3996C59.9232 11.0164 59.7044 10.6685 59.4168 10.3823C59.1292 10.096 58.7803 9.87887 58.3964 9.74722C58.0126 9.61557 57.6039 9.57286 57.2011 9.62233V9.62333ZM65.9801 16.9923C65.5874 16.9984 65.1978 16.9222 64.8363 16.7688C64.4748 16.6153 64.1494 16.388 63.8809 16.1013C63.6124 15.8147 63.4069 15.4751 63.2774 15.1043C63.1479 14.7335 63.0974 14.3398 63.1291 13.9483C63.0942 13.544 63.1451 13.1368 63.2784 12.7534C63.4117 12.37 63.6245 12.0191 63.9027 11.7237C64.181 11.4282 64.5186 11.1948 64.8933 11.0388C65.268 10.8828 65.6714 10.8077 66.0771 10.8183C66.4695 10.8098 66.8594 10.8839 67.2213 11.0358C67.5833 11.1877 67.9092 11.4139 68.1781 11.6999C68.4469 11.9859 68.6526 12.3253 68.7818 12.6959C68.911 13.0665 68.9609 13.4602 68.9281 13.8513C68.9619 14.256 68.9104 14.6633 68.7768 15.0468C68.6433 15.4303 68.4306 15.7814 68.1527 16.0775C67.8748 16.3736 67.5378 16.6081 67.1636 16.7656C66.7893 16.9232 66.3861 17.0005 65.9801 16.9923ZM66.0301 11.7793C65.0801 11.7793 64.4711 12.6673 64.4711 13.9103C64.4711 15.1283 65.0921 16.0173 66.0171 16.0173C66.9421 16.0173 67.5631 15.0673 67.5631 13.8853C67.5641 12.6793 66.9551 11.7783 66.0301 11.7783V11.7793ZM78.7921 10.9393L76.9411 16.8573H75.7351L74.9681 14.2873C74.7773 13.6588 74.6185 13.0209 74.4921 12.3763H74.4671C74.3584 13.0245 74.1999 13.6634 73.9931 14.2873L73.1771 16.8573H71.9581L70.2161 10.9393H71.5681L72.2381 13.7523C72.3961 14.4223 72.5295 15.0557 72.6381 15.6523H72.6631C72.7631 15.1523 72.9181 14.5313 73.1501 13.7653L73.9911 10.9403H75.0631L75.8631 13.7043C76.0581 14.3743 76.2161 15.0323 76.3391 15.6533H76.3741C76.4694 14.9964 76.6029 14.3456 76.7741 13.7043L77.4931 10.9403H78.7851L78.7921 10.9393ZM85.6081 16.8573H84.2931V13.4573C84.2931 12.4103 83.8931 11.8863 83.0991 11.8863C82.9169 11.8928 82.7377 11.9357 82.5723 12.0125C82.4069 12.0893 82.2586 12.1984 82.136 12.3335C82.0134 12.4685 81.9192 12.6267 81.8587 12.7988C81.7983 12.9709 81.7729 13.1533 81.7841 13.3353V16.8553H80.4691V12.6303C80.4691 12.1073 80.4561 11.5463 80.4201 10.9373H81.5771L81.6391 11.8513H81.6751C81.8685 11.5283 82.1441 11.2623 82.4739 11.0807C82.8037 10.899 83.1757 10.8081 83.5521 10.8173C84.7951 10.8173 85.6111 11.7673 85.6111 13.3173V16.8613L85.6081 16.8573ZM89.2361 16.8573H87.9211V8.22333H89.2381L89.2361 16.8573ZM94.0361 16.9913C93.6435 16.9972 93.2539 16.9209 92.8925 16.7674C92.5311 16.614 92.2057 16.3866 91.9373 16.1C91.6688 15.8134 91.4632 15.4739 91.3337 15.1031C91.2042 14.7324 91.1536 14.3387 91.1851 13.9473C91.1501 13.543 91.2008 13.1358 91.334 12.7525C91.4672 12.3691 91.6798 12.0182 91.958 11.7227C92.2362 11.4272 92.5737 11.1938 92.9484 11.0378C93.323 10.8818 93.7264 10.8067 94.1321 10.8173C94.5248 10.8079 94.9151 10.8813 95.2775 11.0329C95.6398 11.1844 95.9662 11.4107 96.2352 11.6969C96.5042 11.9831 96.7099 12.3228 96.8388 12.6939C96.9676 13.0649 97.0168 13.459 96.9831 13.8503C97.0169 14.2549 96.9654 14.6621 96.8319 15.0455C96.6984 15.4289 96.4859 15.7801 96.2081 16.0762C95.9303 16.3722 95.5934 16.6067 95.2193 16.7643C94.8451 16.922 94.442 16.9993 94.0361 16.9913ZM94.0851 11.7783C93.1351 11.7783 92.5261 12.6663 92.5261 13.9093C92.5261 15.1273 93.1491 16.0163 94.0711 16.0163C94.9931 16.0163 95.6171 15.0663 95.6171 13.8843C95.6141 12.6793 95.0071 11.7783 94.0801 11.7783H94.0851ZM102.17 16.8563L102.07 16.1753H102.035C101.836 16.4438 101.574 16.6588 101.272 16.8012C100.97 16.9436 100.638 17.0089 100.304 16.9913C100.069 17.0041 99.833 16.9683 99.612 16.8862C99.3909 16.8042 99.189 16.6775 99.0189 16.5142C98.8488 16.3508 98.7141 16.1543 98.6231 15.9367C98.5322 15.7191 98.4869 15.4851 98.4901 15.2493C98.4901 13.7883 99.7571 13.0333 101.949 13.0333V12.9243C101.949 12.1453 101.536 11.7543 100.72 11.7543C100.173 11.7447 99.6348 11.8975 99.1741 12.1933L98.9071 11.3283C99.5228 10.9698 100.227 10.7923 100.939 10.8163C102.485 10.8163 103.266 11.6323 103.266 13.2643V15.4443C103.257 15.9168 103.285 16.3893 103.351 16.8573L102.17 16.8563ZM101.989 13.9083C100.528 13.9083 99.7951 14.2623 99.7951 15.1013C99.7821 15.2238 99.7962 15.3477 99.8365 15.4641C99.8768 15.5806 99.9422 15.6867 100.028 15.775C100.114 15.8633 100.218 15.9316 100.334 15.975C100.449 16.0185 100.572 16.036 100.695 16.0263C101.025 16.0351 101.344 15.9143 101.586 15.69C101.828 15.4657 101.972 15.1556 101.987 14.8263L101.989 13.9083ZM109.658 16.8563L109.597 15.9063H109.561C109.386 16.2534 109.112 16.5411 108.774 16.7338C108.436 16.9266 108.049 17.0158 107.661 16.9903C106.234 16.9903 105.177 15.7353 105.177 13.9703C105.177 12.1193 106.277 10.8153 107.769 10.8153C108.094 10.7827 108.421 10.8401 108.716 10.9812C109.01 11.1223 109.26 11.3417 109.438 11.6153H109.464V8.21533H110.781V15.2543C110.781 15.8263 110.795 16.3623 110.83 16.8493H109.659L109.658 16.8563ZM109.463 13.3743C109.477 13.1816 109.452 12.9881 109.389 12.8053C109.326 12.6226 109.227 12.4544 109.098 12.311C108.968 12.1676 108.811 12.0519 108.636 11.9708C108.46 11.8898 108.27 11.845 108.077 11.8393C107.102 11.8393 106.505 12.7043 106.505 13.9213C106.505 15.1143 107.124 15.9313 108.05 15.9313C108.247 15.9231 108.44 15.8756 108.618 15.7918C108.796 15.7079 108.955 15.5893 109.087 15.443C109.218 15.2966 109.319 15.1254 109.384 14.9395C109.448 14.7536 109.475 14.5567 109.462 14.3603L109.463 13.3743ZM119.128 16.9913C118.736 16.9971 118.346 16.9207 117.985 16.7671C117.624 16.6136 117.298 16.3862 117.03 16.0996C116.762 15.813 116.557 15.4735 116.427 15.1028C116.298 14.7322 116.247 14.3386 116.279 13.9473C116.244 13.543 116.295 13.1358 116.428 12.7525C116.561 12.3691 116.774 12.0182 117.052 11.7227C117.33 11.4272 117.668 11.1938 118.042 11.0378C118.417 10.8818 118.82 10.8067 119.226 10.8173C119.619 10.8079 120.009 10.8813 120.371 11.0329C120.734 11.1844 121.06 11.4107 121.329 11.6969C121.598 11.9831 121.804 12.3228 121.933 12.6939C122.062 13.0649 122.111 13.459 122.077 13.8503C122.111 14.255 122.059 14.6623 121.926 15.0458C121.792 15.4293 121.58 15.7804 121.302 16.0765C121.024 16.3726 120.687 16.6071 120.313 16.7647C119.938 16.9222 119.535 16.9995 119.129 16.9913H119.128ZM119.177 11.7783C118.228 11.7783 117.619 12.6663 117.619 13.9093C117.619 15.1273 118.24 16.0163 119.164 16.0163C120.088 16.0163 120.71 15.0663 120.71 13.8843C120.71 12.6793 120.101 11.7783 119.173 11.7783H119.177ZM129.151 16.8563H127.831V13.4563C127.831 12.4093 127.431 11.8853 126.637 11.8853C126.455 11.8918 126.276 11.9347 126.11 12.0115C125.945 12.0883 125.797 12.1975 125.674 12.3325C125.552 12.4676 125.458 12.6258 125.397 12.7979C125.337 12.97 125.312 13.1524 125.323 13.3343V16.8543H124.006V12.6303C124.006 12.1073 123.993 11.5463 123.957 10.9373H125.114L125.175 11.8513H125.211C125.404 11.5283 125.679 11.2623 126.009 11.0805C126.338 10.8986 126.71 10.8075 127.086 10.8163C128.329 10.8163 129.146 11.7663 129.146 13.3163L129.151 16.8563ZM138.002 11.9243H136.551V14.7983C136.551 15.5303 136.805 15.8983 137.317 15.8983C137.513 15.9002 137.709 15.8797 137.901 15.8373L137.937 16.8373C137.609 16.9465 137.263 16.9963 136.917 16.9843C135.88 16.9843 135.26 16.4123 135.26 14.9133V11.9253H134.396V10.9393H135.26V9.85533L136.552 9.46533V10.9383H137.999L138.002 11.9243ZM144.966 16.8563H143.652V13.4843C143.652 12.4253 143.252 11.8893 142.458 11.8893C142.277 11.8849 142.097 11.9187 141.929 11.9886C141.762 12.0585 141.611 12.1629 141.487 12.2951C141.363 12.4272 141.267 12.584 141.208 12.7553C141.148 12.9267 141.126 13.1086 141.141 13.2893V16.8573H139.821V8.22333H141.135V11.7783H141.161C141.345 11.4742 141.608 11.2247 141.921 11.0556C142.233 10.8865 142.586 10.8039 142.941 10.8163C144.194 10.8163 144.959 11.7903 144.959 13.3373L144.966 16.8563ZM152.101 14.2133H148.153C148.144 14.4556 148.188 14.6969 148.28 14.9211C148.372 15.1453 148.511 15.3471 148.688 15.5132C148.864 15.6792 149.074 15.8055 149.304 15.8837C149.533 15.9618 149.777 15.99 150.018 15.9663C150.564 15.972 151.106 15.8771 151.618 15.6863L151.818 16.6003C151.188 16.8574 150.512 16.9816 149.832 16.9653C149.434 16.9958 149.034 16.9392 148.661 16.7996C148.287 16.6599 147.948 16.4405 147.667 16.1566C147.387 15.8728 147.172 15.5312 147.037 15.1557C146.902 14.7802 146.85 14.3798 146.885 13.9823C146.845 13.5867 146.887 13.1871 147.009 12.8085C147.131 12.43 147.329 12.0806 147.592 11.7822C147.855 11.4838 148.176 11.2429 148.536 11.0744C148.897 10.906 149.288 10.8137 149.685 10.8033C151.198 10.8033 152.146 11.9243 152.146 13.6163C152.153 13.8169 152.136 14.0177 152.096 14.2143L152.101 14.2133ZM150.895 13.2763C150.895 12.3623 150.434 11.7173 149.595 11.7173C149.203 11.7478 148.837 11.9254 148.57 12.2145C148.303 12.5036 148.155 12.8829 148.156 13.2763H150.895Z" fill="white"/>
</g>
<defs>
<clipPath id="clip0_42_362">
<rect width="169.361" height="50.181" fill="white" transform="translate(0 0.000488281)"/>
</clipPath>
</defs>
</svg>
