<svg width="170" height="51" viewBox="0 0 170 51" fill="none" xmlns="http://www.w3.org/2000/svg">
<path d="M164.363 0.000488281H5C2.23858 0.000488281 0 2.23906 0 5.00049V45.1815C0 47.9429 2.23858 50.1815 5 50.1815H164.363C167.124 50.1815 169.363 47.9429 169.363 45.1815V5.00049C169.363 2.23906 167.124 0.000488281 164.363 0.000488281Z" fill="black"/>
<path d="M163.09 1.00049C164.487 1.00208 165.826 1.55771 166.814 2.5455C167.802 3.53328 168.357 4.87255 168.359 6.26949V43.9095C168.357 45.3064 167.802 46.6457 166.814 47.6335C165.826 48.6213 164.487 49.1769 163.09 49.1785H6.273C4.87537 49.178 3.53507 48.6228 2.54642 47.6349C1.55777 46.647 1.00159 45.3071 1 43.9095V6.27349C1.00053 4.87516 1.55625 3.53426 2.54501 2.5455C3.53378 1.55674 4.87468 1.00102 6.273 1.00049H163.09ZM163.09 0.000488281H6.273C4.61076 0.00523757 3.01795 0.667666 1.84257 1.84305C0.667178 3.01844 0.00474929 4.61125 0 6.27349V43.9095C0.00474929 45.5717 0.667178 47.1645 1.84257 48.3399C3.01795 49.5153 4.61076 50.1777 6.273 50.1825H163.09C164.752 50.1777 166.345 49.5153 167.52 48.3399C168.696 47.1645 169.358 45.5717 169.363 43.9095V6.27349C169.358 4.61125 168.696 3.01844 167.52 1.84305C166.345 0.667666 164.752 0.00523757 163.09 0.000488281Z" fill="#A6A6A6"/>
<path d="M59.4854 12.8485C59.508 13.3089 59.4368 13.769 59.2761 14.201C59.1153 14.633 58.8684 15.0278 58.5504 15.3615C58.1939 15.7314 57.7634 16.0218 57.2869 16.2138C56.8104 16.4058 56.2987 16.4949 55.7854 16.4755C55.2688 16.4799 54.7566 16.3811 54.2787 16.1848C53.8009 15.9885 53.3671 15.6987 53.0029 15.3324C52.6386 14.9661 52.3512 14.5307 52.1576 14.0517C51.964 13.5728 51.868 13.06 51.8754 12.5435C51.868 12.0269 51.964 11.5141 52.1576 11.0352C52.3512 10.5563 52.6386 10.1209 53.0029 9.75458C53.3671 9.38827 53.8009 9.09846 54.2787 8.90215C54.7566 8.70585 55.2688 8.60702 55.7854 8.61147C56.3168 8.61005 56.8429 8.71724 57.3314 8.92647C57.7847 9.11035 58.188 9.39888 58.5084 9.76847L57.8474 10.4295C57.5949 10.1331 57.2778 9.89859 56.9206 9.74395C56.5633 9.58931 56.1753 9.51868 55.7864 9.53747C55.3945 9.53549 55.0062 9.61267 54.6448 9.7644C54.2834 9.91612 53.9564 10.1393 53.6833 10.4204C53.4103 10.7016 53.1968 11.035 53.0558 11.4007C52.9147 11.7664 52.8489 12.1568 52.8624 12.5485C52.8534 13.1345 53.0186 13.71 53.3369 14.2021C53.6553 14.6942 54.1125 15.0807 54.6507 15.3127C55.1889 15.5448 55.7839 15.6119 56.3602 15.5056C56.9366 15.3993 57.4684 15.1243 57.8884 14.7155C58.2765 14.2988 58.5018 13.7565 58.5234 13.1875H55.7854V12.2875H59.4334C59.4671 12.4726 59.4845 12.6603 59.4854 12.8485Z" fill="white" stroke="white" stroke-width="0.2" stroke-miterlimit="10"/>
<path d="M65.27 9.70723H61.841V12.0942H64.932V12.9942H61.841V15.3822H65.27V16.3072H60.875V8.78223H65.27V9.70723Z" fill="white" stroke="white" stroke-width="0.2" stroke-miterlimit="10"/>
<path d="M69.3493 16.3092H68.3812V9.70923H66.2812V8.78223H71.4492V9.70723H69.3493V16.3092Z" fill="white" stroke="white" stroke-width="0.2" stroke-miterlimit="10"/>
<path d="M75.1953 16.3092V8.78223H76.1573V16.3092H75.1953Z" fill="white" stroke="white" stroke-width="0.2" stroke-miterlimit="10"/>
<path d="M80.4498 16.3092H79.4828V9.70923H77.3828V8.78223H82.5548V9.70723H80.4548L80.4498 16.3092Z" fill="white" stroke="white" stroke-width="0.2" stroke-miterlimit="10"/>
<path d="M92.347 15.3373C91.6143 16.0676 90.622 16.4777 89.5875 16.4777C88.5531 16.4777 87.5607 16.0676 86.828 15.3373C86.1156 14.5825 85.7188 13.5838 85.7188 12.5458C85.7188 11.5078 86.1156 10.5092 86.828 9.7543C87.56 9.02401 88.5521 8.6143 89.5861 8.61524C90.6201 8.61617 91.6114 9.02769 92.342 9.7593C93.0566 10.5118 93.4554 11.5096 93.4564 12.5473C93.4573 13.585 93.0603 14.5836 92.347 15.3373ZM87.547 14.7063C88.0904 15.2467 88.8257 15.5501 89.592 15.5501C90.3584 15.5501 91.0937 15.2467 91.637 14.7063C92.1755 14.1156 92.474 13.3451 92.474 12.5458C92.474 11.7465 92.1755 10.976 91.637 10.3853C91.0937 9.84487 90.3584 9.54151 89.592 9.54151C88.8257 9.54151 88.0904 9.84487 87.547 10.3853C87.0094 10.9764 86.7115 11.7468 86.7115 12.5458C86.7115 13.3448 87.0094 14.1152 87.547 14.7063Z" fill="white" stroke="white" stroke-width="0.2" stroke-miterlimit="10"/>
<path d="M94.8125 16.3092V8.78223H95.9905L99.6485 14.6372H99.6895L99.6485 13.1872V8.78223H100.616V16.3092H99.6075L95.7795 10.1692H95.7375L95.7785 11.6202V16.3082L94.8125 16.3092Z" fill="white" stroke="white" stroke-width="0.2" stroke-miterlimit="10"/>
<path d="M85.4811 27.2893C84.4266 27.2933 83.3969 27.6096 82.5221 28.1983C81.6472 28.787 80.9664 29.6218 80.5656 30.5971C80.1648 31.5725 80.062 32.6448 80.2701 33.6785C80.4782 34.7123 80.988 35.6612 81.7351 36.4055C82.4821 37.1497 83.4329 37.6559 84.4675 37.8602C85.502 38.0645 86.5739 37.9577 87.5477 37.5532C88.5216 37.1488 89.3538 36.4648 89.9392 35.5878C90.5247 34.7107 90.8371 33.6798 90.8371 32.6253C90.8476 31.92 90.716 31.2198 90.4503 30.5664C90.1846 29.9129 89.7901 29.3196 89.2904 28.8218C88.7907 28.3239 88.1959 27.9317 87.5415 27.6684C86.8871 27.4052 86.1864 27.2762 85.4811 27.2893ZM85.4811 35.8573C84.8317 35.9037 84.1833 35.7535 83.6205 35.4262C83.0576 35.0989 82.6064 34.6098 82.3254 34.0224C82.0445 33.435 81.9469 32.7767 82.0454 32.1331C82.1439 31.4895 82.4339 30.8905 82.8777 30.414C83.3214 29.9376 83.8983 29.6058 84.5333 29.4618C85.1683 29.3178 85.8319 29.3684 86.4377 29.6069C87.0435 29.8454 87.5635 30.2608 87.93 30.799C88.2964 31.3372 88.4923 31.9732 88.4921 32.6243C88.5117 33.0355 88.4489 33.4465 88.3073 33.833C88.1657 34.2195 87.9482 34.5738 87.6676 34.8751C87.3871 35.1763 87.0491 35.4184 86.6736 35.5871C86.2981 35.7558 85.8927 35.8477 85.4811 35.8573ZM73.7971 27.2893C72.7424 27.2923 71.7121 27.6078 70.8366 28.196C69.961 28.7841 69.2795 29.6186 68.8779 30.5939C68.4764 31.5693 68.3729 32.6417 68.5806 33.6759C68.7882 34.71 69.2977 35.6594 70.0447 36.4041C70.7916 37.1488 71.7425 37.6554 72.7772 37.86C73.812 38.0646 74.8841 37.9579 75.8583 37.5534C76.8324 37.1489 77.6648 36.4649 78.2504 35.5876C78.8359 34.7102 79.1483 33.6791 79.1481 32.6243C79.1584 31.9195 79.0269 31.2198 78.7615 30.5669C78.496 29.9139 78.102 29.3209 77.6028 28.8233C77.1036 28.3256 76.5095 27.9333 75.8557 27.6698C75.202 27.4063 74.5019 27.2769 73.7971 27.2893ZM73.7971 35.8573C73.1477 35.9037 72.4993 35.7535 71.9365 35.4262C71.3736 35.0989 70.9224 34.6098 70.6414 34.0224C70.3605 33.435 70.2629 32.7767 70.3614 32.1331C70.4599 31.4895 70.7499 30.8905 71.1937 30.414C71.6374 29.9376 72.2143 29.6058 72.8493 29.4618C73.4843 29.3178 74.1479 29.3684 74.7537 29.6069C75.3595 29.8454 75.8795 30.2608 76.246 30.799C76.6124 31.3372 76.8083 31.9732 76.8081 32.6243C76.8277 33.0355 76.7648 33.4465 76.6233 33.833C76.4817 34.2195 76.2642 34.5738 75.9836 34.8751C75.7031 35.1763 75.3651 35.4184 74.9896 35.5871C74.6141 35.7558 74.2087 35.8477 73.7971 35.8573ZM59.8971 28.9263V31.1893H65.3131C65.2356 32.2509 64.8018 33.2551 64.0821 34.0393C63.5392 34.5926 62.8864 35.0259 62.1657 35.3113C61.4451 35.5967 60.6726 35.7278 59.8981 35.6963C58.3143 35.6759 56.8023 35.0324 55.6895 33.9052C54.5767 32.778 53.9527 31.2578 53.9527 29.6738C53.9527 28.0899 54.5767 26.5697 55.6895 25.4424C56.8023 24.3152 58.3143 23.6717 59.8981 23.6513C61.4187 23.6315 62.8856 24.2126 63.9801 25.2683L65.5801 23.6683C64.8331 22.9288 63.9461 22.3458 62.9709 21.9534C61.9958 21.561 60.9521 21.3672 59.9011 21.3833C58.802 21.3662 57.7105 21.568 56.6901 21.9768C55.6697 22.3856 54.7409 22.9933 53.9576 23.7645C53.1743 24.5357 52.5522 25.455 52.1276 26.4689C51.703 27.4828 51.4844 28.5711 51.4844 29.6703C51.4844 30.7696 51.703 31.8578 52.1276 32.8717C52.5522 33.8856 53.1743 34.805 53.9576 35.5762C54.7409 36.3474 55.6697 36.9551 56.6901 37.3639C57.7105 37.7727 58.802 37.9744 59.9011 37.9573C60.9733 38.0024 62.0429 37.819 63.0388 37.4194C64.0348 37.0198 64.9344 36.413 65.6781 35.6393C66.9993 34.1969 67.7029 32.2943 67.6381 30.3393C67.6434 29.8652 67.6025 29.3916 67.5161 28.9253L59.8971 28.9263ZM116.738 30.6843C116.417 29.7179 115.807 28.8737 114.99 28.2663C114.172 27.6589 113.188 27.3178 112.17 27.2893C111.485 27.2935 110.807 27.4367 110.178 27.7103C109.55 27.9838 108.983 28.382 108.513 28.8808C108.042 29.3796 107.678 29.9686 107.442 30.6122C107.205 31.2558 107.102 31.9407 107.138 32.6253C107.123 33.3273 107.249 34.0251 107.509 34.6772C107.77 35.3292 108.159 35.9221 108.654 36.4202C109.148 36.9184 109.739 37.3116 110.389 37.5764C111.039 37.8412 111.736 37.9721 112.438 37.9613C113.317 37.9662 114.184 37.7527 114.96 37.3399C115.736 36.9271 116.397 36.3279 116.884 35.5963L115.065 34.3833C114.793 34.8357 114.407 35.2095 113.947 35.4681C113.486 35.7267 112.966 35.8611 112.438 35.8583C111.894 35.8793 111.356 35.7361 110.894 35.4474C110.432 35.1587 110.068 34.7378 109.848 34.2393L116.983 31.2873L116.738 30.6843ZM109.462 32.4633C109.437 32.0749 109.49 31.6855 109.617 31.3176C109.744 30.9498 109.943 30.6111 110.203 30.3212C110.463 30.0313 110.778 29.7962 111.129 29.6295C111.481 29.4628 111.862 29.3679 112.251 29.3503C112.656 29.3234 113.06 29.4164 113.412 29.6177C113.765 29.8191 114.05 30.1198 114.232 30.4823L109.462 32.4633ZM103.662 37.6373H106.005V21.9523H103.662V37.6373ZM99.8211 28.4813H99.7411C99.3846 28.0943 98.9496 27.7878 98.4652 27.5823C97.9808 27.3767 97.4582 27.2768 96.9321 27.2893C95.555 27.3459 94.253 27.9328 93.2986 28.9272C92.3442 29.9216 91.8113 31.2465 91.8113 32.6248C91.8113 34.0031 92.3442 35.3281 93.2986 36.3225C94.253 37.3169 95.555 37.9037 96.9321 37.9603C97.4604 37.9745 97.9853 37.8733 98.4705 37.6638C98.9556 37.4543 99.3892 37.1415 99.7411 36.7473H99.8211V37.5163C99.8211 39.5573 98.7311 40.6493 96.9721 40.6493C96.3861 40.6352 95.8175 40.447 95.3388 40.1086C94.8601 39.7702 94.493 39.2971 94.2841 38.7493L92.2431 39.5983C92.6278 40.5352 93.2835 41.3359 94.1263 41.8977C94.969 42.4594 95.9603 42.7567 96.9731 42.7513C99.7221 42.7513 102.046 41.1343 102.046 37.1933V27.6113H99.8211V28.4813ZM97.1341 35.8583C96.3236 35.7899 95.5684 35.4196 95.018 34.8208C94.4675 34.2219 94.1621 33.4382 94.1621 32.6248C94.1621 31.8114 94.4675 31.0277 95.018 30.4289C95.5684 29.83 96.3236 29.4597 97.1341 29.3913C97.5372 29.4111 97.9322 29.5119 98.2955 29.6875C98.6589 29.8632 98.9831 30.1102 99.249 30.4139C99.5148 30.7175 99.7168 31.0716 99.843 31.455C99.9691 31.8383 100.017 32.2431 99.9831 32.6453C100.015 33.0449 99.965 33.4467 99.8376 33.8267C99.7101 34.2067 99.5074 34.5571 99.2414 34.857C98.9755 35.1568 98.6518 35.3999 98.2897 35.5718C97.9276 35.7437 97.5346 35.8408 97.1341 35.8573V35.8583ZM127.721 21.9583H122.112V37.6393H124.448V31.6953H127.717C128.379 31.7321 129.042 31.6334 129.665 31.4052C130.288 31.1771 130.858 30.8243 131.34 30.3684C131.822 29.9125 132.206 29.3631 132.468 28.7539C132.73 28.1446 132.866 27.4882 132.866 26.8248C132.866 26.1615 132.73 25.5051 132.468 24.8958C132.206 24.2865 131.822 23.7371 131.34 23.2812C130.858 22.8254 130.288 22.4726 129.665 22.2444C129.042 22.0163 128.379 21.9176 127.717 21.9543L127.721 21.9583ZM127.781 29.5173H124.448V24.1393H127.778C128.131 24.1393 128.481 24.2089 128.807 24.3439C129.133 24.479 129.429 24.677 129.679 24.9266C129.928 25.1762 130.126 25.4725 130.262 25.7987C130.397 26.1248 130.466 26.4743 130.466 26.8273C130.466 27.1803 130.397 27.5299 130.262 27.856C130.126 28.1821 129.928 28.4784 129.679 28.728C129.429 28.9776 129.133 29.1756 128.807 29.3107C128.481 29.4458 128.131 29.5153 127.778 29.5153L127.781 29.5173ZM142.248 27.2603C141.394 27.2107 140.543 27.4113 139.801 27.8376C139.059 28.2639 138.458 28.8973 138.07 29.6603L140.149 30.5283C140.355 30.1493 140.667 29.8387 141.047 29.6344C141.427 29.4301 141.858 29.3411 142.288 29.3783C142.882 29.3206 143.475 29.5007 143.936 29.8791C144.397 30.2576 144.69 30.8036 144.749 31.3973V31.5583C143.997 31.1609 143.159 30.9548 142.308 30.9583C140.069 30.9583 137.788 32.1893 137.788 34.4883C137.81 34.9731 137.929 35.4486 138.138 35.8865C138.347 36.3245 138.642 36.716 139.005 37.0379C139.368 37.3597 139.792 37.6053 140.252 37.7602C140.712 37.9151 141.198 37.976 141.682 37.9393C142.272 37.9743 142.86 37.8505 143.385 37.5806C143.911 37.3108 144.354 36.9049 144.669 36.4053H144.749V37.6163H147.008V31.5973C147.009 28.8133 144.932 27.2603 142.248 27.2603ZM141.966 35.8553C141.198 35.8553 140.129 35.4723 140.129 34.5243C140.129 33.3133 141.46 32.8493 142.61 32.8493C143.357 32.8295 144.096 33.0104 144.749 33.3733C144.663 34.0534 144.334 34.6793 143.822 35.1356C143.311 35.5918 142.652 35.8474 141.966 35.8553ZM155.242 27.6033L152.559 34.4033H152.479L149.694 27.6033H147.172L151.348 37.1033L148.967 42.3903H151.408L157.845 27.6003L155.242 27.6033ZM134.157 37.6393H136.498V21.9533H134.157V37.6393Z" fill="white"/>
<path d="M13.0923 9.45723C12.6816 9.94961 12.4741 10.5802 12.5123 11.2202V38.9652C12.4739 39.6053 12.6814 40.236 13.0923 40.7282L13.1853 40.8182L28.7273 25.2752V24.9092L13.1843 9.36523L13.0923 9.45723Z" fill="url(#paint0_linear_42_338)"/>
<path d="M33.9056 30.4591L28.7266 25.2751V24.909L33.9096 19.7271L34.0266 19.795L40.1646 23.2831C41.9176 24.2831 41.9176 25.9091 40.1646 26.9051L34.0266 30.3911L33.9056 30.4591Z" fill="url(#paint1_linear_42_338)"/>
<path d="M34.0287 30.3913L28.7288 25.0913L13.0938 40.7273C13.4512 41.0424 13.9076 41.2226 14.3838 41.2367C14.8601 41.2507 15.3263 41.0978 15.7017 40.8043L34.0287 30.3913Z" fill="url(#paint2_linear_42_338)"/>
<path d="M34.0287 19.7933L15.7017 9.38129C15.3264 9.08764 14.8602 8.93458 14.3838 8.94864C13.9075 8.96271 13.4511 9.14301 13.0938 9.45829L28.7288 25.0923L34.0287 19.7933Z" fill="url(#paint3_linear_42_338)"/>
<path opacity="0.2" d="M33.9117 30.2744L15.7017 40.6204C15.341 40.8953 14.9006 41.0454 14.4471 41.0479C13.9936 41.0505 13.5515 40.9053 13.1877 40.6344L13.0938 40.7274L13.1868 40.8194C13.5505 41.0903 13.9926 41.2355 14.4461 41.2329C14.8996 41.2304 15.34 41.0803 15.7008 40.8054L34.0287 30.3914L33.9117 30.2744Z" fill="black"/>
<path opacity="0.12" d="M13.0923 40.5443C12.6814 40.052 12.4739 39.4214 12.5123 38.7812V38.9683C12.474 39.6077 12.6815 40.2377 13.0923 40.7293L13.1863 40.6363L13.0923 40.5443Z" fill="black"/>
<path opacity="0.12" d="M40.1613 26.7203L33.9062 30.2743L34.0233 30.3913L40.1613 26.9033C40.5227 26.7468 40.8356 26.496 41.0671 26.1773C41.2986 25.8585 41.4402 25.4835 41.4772 25.0913C41.3999 25.4466 41.2407 25.7789 41.0122 26.0617C40.7837 26.3445 40.4923 26.57 40.1613 26.7203Z" fill="black"/>
<path opacity="0.25" d="M15.7036 9.56438L40.1686 23.4644C40.4994 23.6147 40.7905 23.8401 41.0188 24.1227C41.2471 24.4054 41.4063 24.7374 41.4836 25.0924C41.4467 24.7003 41.3052 24.3253 41.0739 24.0066C40.8426 23.6879 40.5299 23.4371 40.1686 23.2804L15.7036 9.38038C13.9496 8.38038 12.5156 9.21238 12.5156 11.2194V11.4034C12.5156 9.39638 13.9496 8.56838 15.7036 9.56438Z" fill="white"/>
<defs>
<linearGradient id="paint0_linear_42_338" x1="27.3487" y1="217.395" x2="2.46118" y2="210.781" gradientUnits="userSpaceOnUse">
<stop stop-color="#00A0FF"/>
<stop offset="0.007" stop-color="#00A1FF"/>
<stop offset="0.26" stop-color="#00BEFF"/>
<stop offset="0.512" stop-color="#00D2FF"/>
<stop offset="0.76" stop-color="#00DFFF"/>
<stop offset="1" stop-color="#00E3FF"/>
</linearGradient>
<linearGradient id="paint1_linear_42_338" x1="42.4485" y1="203.223" x2="12.0842" y2="203.223" gradientUnits="userSpaceOnUse">
<stop stop-color="#FFE000"/>
<stop offset="0.409" stop-color="#FFBD00"/>
<stop offset="0.775" stop-color="#FFA500"/>
<stop offset="1" stop-color="#FF9C00"/>
</linearGradient>
<linearGradient id="paint2_linear_42_338" x1="31.1397" y1="200.488" x2="11.1518" y2="166.833" gradientUnits="userSpaceOnUse">
<stop stop-color="#FF3A44"/>
<stop offset="1" stop-color="#C31162"/>
</linearGradient>
<linearGradient id="paint3_linear_42_338" x1="9.15797" y1="228.239" x2="18.0895" y2="213.215" gradientUnits="userSpaceOnUse">
<stop stop-color="#32A071"/>
<stop offset="0.068" stop-color="#2DA771"/>
<stop offset="0.476" stop-color="#15CF74"/>
<stop offset="0.801" stop-color="#06E775"/>
<stop offset="1" stop-color="#00F076"/>
</linearGradient>
</defs>
</svg>
