<svg width="18" height="18" viewBox="0 0 18 18" fill="none" xmlns="http://www.w3.org/2000/svg">
<path d="M15.4 8.90371V6.6C15.4 2.96089 12.4391 0 8.8 0C5.16089 0 2.2 2.96089 2.2 6.6V8.90371C0.936729 9.23059 0 10.3674 0 11.7332C0 13.1232 0.968314 14.2804 2.26569 14.5833C2.57445 16.2949 4.06764 17.6 5.86677 17.6H10.2668V16.1332H5.86677C4.91197 16.1332 4.10567 15.5185 3.80184 14.6665L5.86677 14.6668V8.79999H3.66677V6.59999C3.66677 3.7693 5.96962 1.46676 8.8 1.46676C11.6307 1.46676 13.9332 3.76961 13.9332 6.59999V8.79999H11.7332V14.6668H14.6665C16.287 14.6668 17.5997 13.3541 17.5997 11.7335C17.6 10.3674 16.6633 9.23065 15.4 8.90371Z" fill="black"/>
</svg>
