<svg width="36" height="36" viewBox="0 0 36 36" fill="none" xmlns="http://www.w3.org/2000/svg">
<path d="M30.2344 26.4371C29.4313 26.4375 28.6432 26.6544 27.9529 27.0648L23.715 22.827C23.9335 22.374 24.0469 21.8775 24.0469 21.3746C24.0469 20.8717 23.9335 20.3752 23.715 19.9222L26.982 16.6558C28.039 17.3214 29.3042 17.5743 30.5358 17.366C31.7674 17.1577 32.8791 16.5029 33.6584 15.5267C34.4377 14.5505 34.83 13.3213 34.7603 12.0742C34.6905 10.827 34.1637 9.64929 33.2805 8.76604C32.3972 7.88279 31.2195 7.35596 29.9723 7.28624C28.7252 7.21652 27.496 7.6088 26.5199 8.3881C25.5437 9.1674 24.8889 10.2791 24.6806 11.5107C24.4723 12.7423 24.7251 14.0075 25.3907 15.0645L22.1243 18.3315C21.6713 18.113 21.1748 17.9996 20.6719 17.9996C20.169 17.9996 19.6726 18.113 19.2195 18.3315L16.9695 16.0815H16.9662C17.1849 15.627 17.298 15.1289 17.2969 14.6246C17.2969 13.9571 17.099 13.3046 16.7281 12.7495C16.3573 12.1945 15.8302 11.7619 15.2135 11.5065C14.5968 11.2511 13.9182 11.1842 13.2635 11.3144C12.6088 11.4447 12.0074 11.7661 11.5354 12.2381C11.0634 12.7101 10.742 13.3115 10.6118 13.9662C10.4815 14.6208 10.5484 15.2994 10.8038 15.9161C11.0593 16.5328 11.4919 17.06 12.0469 17.4308C12.6019 17.8017 13.2544 17.9996 13.9219 17.9996C14.4247 17.9992 14.921 17.8854 15.3737 17.6666V17.67L17.6237 19.92C17.4053 20.373 17.2919 20.8694 17.2919 21.3723C17.2919 21.8753 17.4053 22.3717 17.6237 22.8247L12.4139 28.0346C11.5812 27.5841 10.6142 27.4484 9.68972 27.6523C8.76523 27.8562 7.94504 28.3861 7.37916 29.1451C6.81328 29.904 6.53953 30.8414 6.60798 31.7856C6.67642 32.7298 7.08249 33.6179 7.75192 34.2873C8.42134 34.9567 9.30938 35.3628 10.2536 35.4312C11.1978 35.4997 12.1352 35.2259 12.8941 34.66C13.6531 34.0942 14.183 33.274 14.3869 32.3495C14.5908 31.425 14.4551 30.458 14.0046 29.6253L19.2145 24.4155C19.6675 24.6339 20.1639 24.7473 20.6669 24.7473C21.1698 24.7473 21.6662 24.6339 22.1192 24.4155L26.3571 28.6533C25.8545 29.5077 25.6483 30.5042 25.7706 31.4878C25.8929 32.4715 26.3368 33.3871 27.0333 34.0924C27.7298 34.7977 28.6398 35.253 29.6219 35.3876C30.6039 35.5222 31.6029 35.3284 32.4635 34.8365C33.324 34.3447 33.9979 33.5822 34.3803 32.6677C34.7627 31.7532 34.8322 30.738 34.5779 29.7799C34.3237 28.8219 33.76 27.9747 32.9744 27.3701C32.1889 26.7656 31.2256 26.4376 30.2344 26.4371Z" fill="#DAE4F3"/>
<path d="M22.7588 14.6503C25.5899 12.1573 27.2779 9.57825 26.2981 7.81706C25.0684 5.60531 20.713 6.52331 18.2909 7.25794C17.4809 3.43125 16.0032 0.5625 13.9219 0.5625C11.8407 0.5625 10.372 3.41381 9.56257 7.22194C7.15732 6.48281 2.82775 5.54681 1.588 7.74619C0.595191 9.50175 2.26807 12.0904 5.08507 14.5997C2.254 17.0927 0.565941 19.6717 1.54582 21.4312C2.77713 23.6447 7.13425 22.725 9.553 21.9904C10.363 25.8188 11.8407 28.6875 13.9219 28.6875C16.0032 28.6875 17.4719 25.8362 18.2836 22.0281C20.6849 22.7661 25.0178 23.7038 26.2581 21.5038C27.2487 19.7483 25.5758 17.1596 22.7588 14.6503ZM25.3081 8.36156C25.8829 9.39544 24.6123 11.5408 21.8959 13.9134C20.9383 13.1313 19.9402 12.4002 18.9057 11.7231C18.8208 10.5739 18.6869 9.44381 18.5035 8.37C20.2984 7.81875 24.4688 6.8535 25.3081 8.36156ZM13.909 19.0609C12.574 18.4142 11.278 17.6897 10.0278 16.8913C9.93606 15.3769 9.93606 13.8584 10.0278 12.3441C11.2855 11.5496 12.589 10.83 13.9315 10.1891C15.2665 10.836 16.5625 11.5604 17.8128 12.3587C17.9044 13.8731 17.9044 15.3916 17.8128 16.9059C16.5549 17.7001 15.2514 18.4197 13.909 19.0609ZM17.7087 18.2931C17.6337 19.0877 17.5356 19.8407 17.4145 20.5521C16.6979 20.2956 15.9644 20.0019 15.2208 19.6723C16.1224 19.2122 16.8869 18.7875 17.7087 18.2931ZM12.595 19.665C11.8581 19.9856 11.1346 20.2712 10.4243 20.5217C10.3073 19.8163 10.2108 19.0704 10.1346 18.2841C10.9418 18.7746 11.7001 19.2015 12.595 19.665ZM8.85944 16.1213C8.12369 15.615 7.44307 15.1087 6.82488 14.6064C7.44363 14.1103 8.12482 13.6091 8.86057 13.1085C8.82007 14.1615 8.82007 15.0817 8.85944 16.1196V16.1213ZM10.1352 10.9586C10.2102 10.1636 10.3083 9.41062 10.4294 8.69963C11.146 8.95612 11.8795 9.24975 12.6231 9.57938C11.7158 10.0406 10.9514 10.4664 10.1352 10.9569V10.9586ZM15.2489 9.58669C15.9858 9.26606 16.7093 8.9805 17.4196 8.73C17.5366 9.43538 17.6331 10.1812 17.7093 10.9676C16.9021 10.4754 16.1438 10.0485 15.2489 9.585V9.58669ZM18.9844 13.1304C19.7202 13.6367 20.4008 14.1429 21.0196 14.6452C20.3997 15.1414 19.7209 15.6407 18.9833 16.1432C19.0238 15.0885 19.0238 14.1683 18.9844 13.1304ZM13.9219 1.6875C15.1398 1.6875 16.4442 3.942 17.2103 7.60838C16.098 7.99608 15.0059 8.43971 13.9383 8.93756C12.8626 8.42825 11.7617 7.9741 10.6398 7.57688C11.407 3.92963 12.7081 1.6875 13.9219 1.6875ZM2.57238 8.29688C3.42569 6.78487 7.57863 7.78275 9.34657 8.334C9.16038 9.41288 9.02538 10.5491 8.93932 11.7045C7.90646 12.373 6.90928 13.0951 5.95188 13.8679C3.24963 11.4795 1.99132 9.32681 2.57238 8.29688ZM2.53582 20.8884C1.96094 19.8546 3.23163 17.7092 5.94794 15.3366C6.90557 16.1187 7.9037 16.8498 8.93819 17.5269C9.02313 18.6761 9.157 19.8062 9.34038 20.88C7.618 21.4093 3.39082 22.4229 2.53582 20.8884ZM13.9219 27.5625C12.7041 27.5625 11.3997 25.308 10.6336 21.6416C11.7459 21.2539 12.838 20.8103 13.9056 20.3124C14.9813 20.8217 16.0822 21.2759 17.2041 21.6731C16.4369 25.3204 15.1358 27.5625 13.9219 27.5625ZM25.2715 20.9531C24.4182 22.4668 20.2737 21.4706 18.4973 20.916C18.6835 19.8371 18.8185 18.7009 18.9046 17.5455C19.9374 16.877 20.9346 16.1549 21.892 15.3821C24.5943 17.7705 25.8526 19.9232 25.2715 20.9531Z" fill="#0056D2"/>
<path d="M13.9216 12.375C13.4772 12.3776 13.0435 12.5117 12.6751 12.7605C12.3068 13.0093 12.0205 13.3615 11.8522 13.7729C11.6838 14.1842 11.6411 14.6362 11.7294 15.0718C11.8177 15.5074 12.033 15.9071 12.3481 16.2205C12.6633 16.5339 13.0643 16.7469 13.5004 16.8327C13.9365 16.9184 14.3882 16.8731 14.7986 16.7025C15.209 16.5318 15.5596 16.2434 15.8063 15.8737C16.0529 15.504 16.1846 15.0695 16.1846 14.625C16.1823 14.0267 15.9428 13.4538 15.5185 13.0319C15.0943 12.6101 14.5199 12.3738 13.9216 12.375ZM13.9216 15.75C13.6994 15.7487 13.4826 15.6816 13.2985 15.5571C13.1144 15.4327 12.9712 15.2565 12.8871 15.0509C12.803 14.8452 12.7817 14.6192 12.8258 14.4014C12.87 14.1836 12.9777 13.9838 13.1353 13.8272C13.2929 13.6705 13.4933 13.564 13.7114 13.5212C13.9294 13.4783 14.1553 13.501 14.3604 13.5863C14.5656 13.6716 14.7409 13.8158 14.8642 14.0007C14.9876 14.1856 15.0534 14.4028 15.0534 14.625C15.0522 14.9242 14.9324 15.2107 14.7202 15.4216C14.508 15.6325 14.2208 15.7506 13.9216 15.75Z" fill="#0056D2"/>
</svg>
