<svg width="11" height="11" viewBox="0 0 11 11" fill="none" xmlns="http://www.w3.org/2000/svg">
<path d="M2.79057 10.2773C2.72794 10.2771 2.66609 10.2627 2.60935 10.2349C2.5526 10.2071 2.50231 10.1668 2.46198 10.1166C2.42165 10.0665 2.39225 10.0077 2.37581 9.94442C2.35938 9.88115 2.35632 9.81489 2.36683 9.75025L2.86797 6.69177L0.745192 4.5257C0.687691 4.46703 0.647019 4.39269 0.627775 4.31108C0.608531 4.22948 0.611483 4.14387 0.636297 4.06393C0.661111 3.98399 0.706797 3.91291 0.768189 3.85873C0.82958 3.80455 0.904229 3.76943 0.983693 3.75735L3.91722 3.31112L5.22931 0.528429C5.26485 0.45306 5.31983 0.389602 5.38802 0.34523C5.45622 0.300859 5.53491 0.277344 5.61521 0.277344C5.69551 0.277344 5.7742 0.300859 5.8424 0.34523C5.91059 0.389602 5.96557 0.45306 6.00111 0.528429L7.31321 3.31112L10.2469 3.75735C10.3264 3.76946 10.401 3.8046 10.4624 3.85879C10.5237 3.91298 10.5694 3.98407 10.5942 4.06401C10.619 4.14395 10.6219 4.22955 10.6027 4.31115C10.5834 4.39274 10.5427 4.46707 10.4852 4.52573L8.3624 6.69174L8.86359 9.75025C8.87717 9.8331 8.86834 9.91827 8.83808 9.99614C8.80783 10.074 8.75737 10.1415 8.6924 10.1909C8.62744 10.2403 8.55056 10.2697 8.47047 10.2757C8.39038 10.2818 8.31026 10.2643 8.23919 10.2251L5.61521 8.7811L2.99123 10.2251C2.92939 10.2593 2.86052 10.2773 2.79057 10.2773Z" fill="#FFB800"/>
</svg>
