<svg width="25" height="24" viewBox="0 0 25 24" fill="none" xmlns="http://www.w3.org/2000/svg">
<g clip-path="url(#clip0_12537_26752)">
<path d="M5.0293 18H19.0293V11.031C19.0293 7.148 15.8953 4 12.0293 4C8.1633 4 5.0293 7.148 5.0293 11.031V18ZM12.0293 2C16.9993 2 21.0293 6.043 21.0293 11.031V20H3.0293V11.031C3.0293 6.043 7.0593 2 12.0293 2ZM9.5293 21H14.5293C14.5293 21.663 14.2659 22.2989 13.7971 22.7678C13.3282 23.2366 12.6923 23.5 12.0293 23.5C11.3663 23.5 10.7304 23.2366 10.2615 22.7678C9.79269 22.2989 9.5293 21.663 9.5293 21Z" fill="#0D0D0D"/>
<circle cx="18.5293" cy="6.5" r="3.5" fill="#D50E0E"/>
</g>
<defs>
<clipPath id="clip0_12537_26752">
<rect width="24" height="24" fill="white" transform="translate(0.0292969)"/>
</clipPath>
</defs>
</svg>
