<svg width="1527" height="135" viewBox="0 0 1527 135" fill="none" xmlns="http://www.w3.org/2000/svg">
<mask id="mask0_6_122" style="mask-type:luminance" maskUnits="userSpaceOnUse" x="218" y="0" width="137" height="118">
<path d="M218.825 0H354.435V117.68H218.825V0Z" fill="white"/>
</mask>
<g mask="url(#mask0_6_122)">
<path d="M354.042 0L320.256 58.6551L320.196 58.7796V58.7956L298.513 71.3284L309.36 77.5931L286.47 117.342L258.935 69.5306V39.0874L245.793 46.6922L218.885 0H354.042Z" fill="#010D51"/>
</g>
<mask id="mask1_6_122" style="mask-type:luminance" maskUnits="userSpaceOnUse" x="408" y="0" width="138" height="118">
<path d="M408.885 0H545.521V117.68H408.885V0Z" fill="white"/>
</mask>
<g mask="url(#mask1_6_122)">
<path d="M544.598 0L510.812 58.6551L510.752 58.7796V58.7956L489.058 71.3284L499.905 77.5931L477.015 117.342L449.497 69.5306V39.0874L436.35 46.6922L409.442 0H544.598Z" fill="#010D51"/>
</g>
<mask id="mask2_6_122" style="mask-type:luminance" maskUnits="userSpaceOnUse" x="599" y="0" width="137" height="118">
<path d="M599.971 0H735.581V117.68H599.971V0Z" fill="white"/>
</mask>
<g mask="url(#mask2_6_122)">
<path d="M735.156 0L701.369 58.6551L701.293 58.7796V58.7956L679.614 71.3284L690.461 77.5931L667.571 117.342L640.054 69.5306V39.0874L626.907 46.6922L600.003 0H735.156Z" fill="#010D51"/>
</g>
<mask id="mask3_6_122" style="mask-type:luminance" maskUnits="userSpaceOnUse" x="599" y="0" width="137" height="118">
<path d="M599.971 0H735.581V117.68H599.971V0Z" fill="white"/>
</mask>
<g mask="url(#mask3_6_122)">
<path d="M735.156 0L701.369 58.6551L701.293 58.7796V58.7956L679.614 71.3284L690.461 77.5931L667.571 117.342L640.054 69.5306V39.0874L626.907 46.6922L600.003 0H735.156Z" fill="#010D51"/>
</g>
<mask id="mask4_6_122" style="mask-type:luminance" maskUnits="userSpaceOnUse" x="0" y="21" width="69" height="114">
<path d="M0 21.1085H68.8322V135H0V21.1085Z" fill="white"/>
</mask>
<g mask="url(#mask4_6_122)">
<path d="M68.2103 138.631H0.658203V21.3493L25.2663 64.0444L12.6693 71.3282L37.8273 85.8715L68.2103 138.631Z" fill="#39D307"/>
</g>
<mask id="mask5_6_122" style="mask-type:luminance" maskUnits="userSpaceOnUse" x="123" y="20" width="136" height="115">
<path d="M123.282 20.0814H258.892V135H123.282V20.0814Z" fill="white"/>
</mask>
<g mask="url(#mask5_6_122)">
<path d="M258.768 138.077H123.615L148.545 94.8086L163.666 103.565V68.5631L191.183 20.7473L216.052 63.908L203.226 71.3282L228.862 86.1481L258.768 138.077Z" fill="#39D307"/>
</g>
<mask id="mask6_6_122" style="mask-type:luminance" maskUnits="userSpaceOnUse" x="313" y="20" width="137" height="115">
<path d="M313.341 20.0814H449.978V135H313.341V20.0814Z" fill="white"/>
</mask>
<g mask="url(#mask6_6_122)">
<path d="M449.328 137.524H314.172L338.856 94.673L354.21 103.565V67.9938L381.744 20.1981L406.853 63.772L393.783 71.3286L419.892 86.4255L449.328 137.524Z" fill="#39D307"/>
</g>
<mask id="mask7_6_122" style="mask-type:luminance" maskUnits="userSpaceOnUse" x="504" y="19" width="137" height="116">
<path d="M504.428 19.0536H640.038V134.999H504.428V19.0536Z" fill="white"/>
</mask>
<g mask="url(#mask7_6_122)">
<path d="M639.869 136.969H504.717L529.168 94.5358L544.767 103.565V67.4392L572.301 19.6435L597.643 63.6308L584.344 71.3279L610.942 86.7021V86.7144L639.869 136.969Z" fill="#39D307"/>
</g>
<mask id="mask8_6_122" style="mask-type:luminance" maskUnits="userSpaceOnUse" x="27" y="0" width="138" height="118">
<path d="M27.7383 0H164.375V117.68H27.7383V0Z" fill="white"/>
</mask>
<g mask="url(#mask8_6_122)">
<path d="M163.484 0L129.715 58.6551L129.638 58.7796V58.7956L107.955 71.3284L118.803 77.5931L95.9122 117.342L68.3786 69.5306V39.0874L55.2358 46.6922L28.3281 0H163.484Z" fill="#010D51"/>
</g>
<mask id="mask9_6_122" style="mask-type:luminance" maskUnits="userSpaceOnUse" x="791" y="0" width="136" height="118">
<path d="M791.125 0H926.734V117.68H791.125V0Z" fill="white"/>
</mask>
<g mask="url(#mask9_6_122)">
<path d="M926.341 0L892.555 58.6551L892.495 58.7796V58.7956L870.812 71.3284L881.659 77.5931L858.769 117.342L831.235 69.5306V39.0874L818.092 46.6922L791.185 0H926.341Z" fill="#010D51"/>
</g>
<mask id="mask10_6_122" style="mask-type:luminance" maskUnits="userSpaceOnUse" x="981" y="0" width="137" height="118">
<path d="M981.184 0H1117.82V117.68H981.184V0Z" fill="white"/>
</mask>
<g mask="url(#mask10_6_122)">
<path d="M1116.9 0L1083.11 58.6551L1083.05 58.7796V58.7956L1061.36 71.3284L1072.2 77.5931L1049.31 117.342L1021.8 69.5306V39.0874L1008.65 46.6922L981.742 0H1116.9Z" fill="#010D51"/>
</g>
<mask id="mask11_6_122" style="mask-type:luminance" maskUnits="userSpaceOnUse" x="1172" y="0" width="136" height="118">
<path d="M1172.27 0H1307.88V117.68H1172.27V0Z" fill="white"/>
</mask>
<g mask="url(#mask11_6_122)">
<path d="M1307.46 0L1273.67 58.6551L1273.59 58.7796V58.7956L1251.91 71.3284L1262.76 77.5931L1239.87 117.342L1212.35 69.5306V39.0874L1199.21 46.6922L1172.3 0H1307.46Z" fill="#010D51"/>
</g>
<mask id="mask12_6_122" style="mask-type:luminance" maskUnits="userSpaceOnUse" x="1172" y="0" width="136" height="118">
<path d="M1172.27 0H1307.88V117.68H1172.27V0Z" fill="white"/>
</mask>
<g mask="url(#mask12_6_122)">
<path d="M1307.46 0L1273.67 58.6551L1273.59 58.7796V58.7956L1251.91 71.3284L1262.76 77.5931L1239.87 117.342L1212.35 69.5306V39.0874L1199.21 46.6922L1172.3 0H1307.46Z" fill="#010D51"/>
</g>
<mask id="mask13_6_122" style="mask-type:luminance" maskUnits="userSpaceOnUse" x="695" y="20" width="137" height="115">
<path d="M695.581 20.0814H831.191V135H695.581V20.0814Z" fill="white"/>
</mask>
<g mask="url(#mask13_6_122)">
<path d="M831.067 138.077H695.914L720.844 94.8086L735.965 103.565V68.5631L763.482 20.7473L788.351 63.908L775.526 71.3282L801.161 86.1481L831.067 138.077Z" fill="#39D307"/>
</g>
<mask id="mask14_6_122" style="mask-type:luminance" maskUnits="userSpaceOnUse" x="885" y="20" width="138" height="115">
<path d="M885.641 20.0814H1022.28V135H885.641V20.0814Z" fill="white"/>
</mask>
<g mask="url(#mask14_6_122)">
<path d="M1021.63 137.524H886.471L911.155 94.673L926.509 103.565V67.9938L954.043 20.1981L979.153 63.772L966.083 71.3286L992.191 86.4255L1021.63 137.524Z" fill="#39D307"/>
</g>
<mask id="mask15_6_122" style="mask-type:luminance" maskUnits="userSpaceOnUse" x="1076" y="19" width="137" height="116">
<path d="M1076.73 19.0536H1212.34V134.999H1076.73V19.0536Z" fill="white"/>
</mask>
<g mask="url(#mask15_6_122)">
<path d="M1212.17 136.969H1077.02L1101.47 94.5358L1117.07 103.565V67.4392L1144.6 19.6435L1169.94 63.6308L1156.64 71.3279L1183.24 86.7021V86.7144L1212.17 136.969Z" fill="#39D307"/>
</g>
<mask id="mask16_6_122" style="mask-type:luminance" maskUnits="userSpaceOnUse" x="1363" y="0" width="137" height="118">
<path d="M1363.42 0H1499.03V117.68H1363.42V0Z" fill="white"/>
</mask>
<g mask="url(#mask16_6_122)">
<path d="M1498.64 0L1464.85 58.6551L1464.79 58.7796V58.7956L1443.11 71.3284L1453.96 77.5931L1431.07 117.342L1403.53 69.5306V39.0874L1390.39 46.6922L1363.48 0H1498.64Z" fill="#010D51"/>
</g>
<mask id="mask17_6_122" style="mask-type:luminance" maskUnits="userSpaceOnUse" x="1267" y="20" width="137" height="115">
<path d="M1267.88 20.0814H1403.49V135H1267.88V20.0814Z" fill="white"/>
</mask>
<g mask="url(#mask17_6_122)">
<path d="M1403.37 138.077H1268.21L1293.14 94.8086L1308.26 103.565V68.5631L1335.78 20.7473L1360.65 63.908L1347.82 71.3282L1373.46 86.1481L1403.37 138.077Z" fill="#39D307"/>
</g>
<mask id="mask18_6_122" style="mask-type:luminance" maskUnits="userSpaceOnUse" x="1457" y="20" width="138" height="115">
<path d="M1457.94 20.0814H1594.58V135H1457.94V20.0814Z" fill="white"/>
</mask>
<g mask="url(#mask18_6_122)">
<path d="M1526.09 20.401V172.651H1438.35L1469.77 118.115L1490.33 130.016V82.4115L1526.07 20.3594L1526.09 20.401Z" fill="#39D307"/>
</g>
</svg>
